<svg width="282" height="66" viewBox="0 0 282 66" fill="none" xmlns="http://www.w3.org/2000/svg">
<mask id="mask0_228_168" style="mask-type:alpha" maskUnits="userSpaceOnUse" x="0" y="0" width="282" height="66">
<mask id="mask1_228_168" style="mask-type:luminance" maskUnits="userSpaceOnUse" x="0" y="0" width="282" height="66">
<path d="M282 0H0V65.4092H282V0Z" fill="white"/>
</mask>
<g mask="url(#mask1_228_168)">
<path d="M0 64.601V5.79492H15.4572C21.7801 5.79492 26.5558 7.08736 29.7844 9.67224C33.0399 12.2302 34.6677 15.9594 34.6677 20.86C34.6677 24.4141 33.7664 27.3624 31.9637 29.7051C30.1611 32.0476 27.6184 33.542 24.336 34.1883C28.0491 34.673 31.1431 36.2884 33.6185 39.0348C36.0938 41.7543 37.3314 44.8778 37.3314 48.4051C37.3314 53.4133 35.7036 57.3714 32.4481 60.2793C29.2193 63.1604 24.7127 64.601 18.928 64.601H0ZM2.17936 35.5614V62.4201H19.1702C24.1478 62.4201 28.0489 61.1948 30.8741 58.7446C33.7261 56.2674 35.1521 52.8478 35.1521 48.4859C35.1521 44.7701 33.7799 41.714 31.0355 39.3176C28.2911 36.8942 24.6186 35.6422 20.0177 35.5614H2.17936ZM2.17936 33.3804H16.2644C21.6186 33.3804 25.6543 32.3572 28.3718 30.3109C31.0893 28.2376 32.4481 25.0334 32.4481 20.6985C32.4481 12.3514 26.9459 8.11053 15.9415 7.97592H2.17936V33.3804Z" fill="black"/>
<path d="M50.8889 31.0789C52.3148 27.6863 54.4135 25.0071 57.1848 23.0415C59.956 21.0761 63.0233 20.0932 66.3864 20.0932C71.068 20.0932 74.5388 21.4261 76.7989 24.0916C79.0859 26.7305 80.2429 30.7289 80.2698 36.0872V64.6016H78.0903V36.0064C78.0634 31.3213 77.1084 27.8613 75.2249 25.6265C73.3415 23.3648 70.3549 22.2338 66.2654 22.2338C62.4985 22.2338 59.2296 23.5801 56.4583 26.2727C53.7139 28.9383 51.8574 32.3848 50.8889 36.6122V64.6016H48.7095V2.56445H50.8889V31.0789Z" fill="black"/>
<path d="M122.161 64.6012C121.623 62.7433 121.354 60.0776 121.354 56.6043C119.632 59.4045 117.278 61.572 114.291 63.1067C111.305 64.6417 107.928 65.409 104.161 65.409C100.126 65.409 96.8701 64.3184 94.3949 62.1375C91.9464 59.9295 90.7222 57.062 90.7222 53.5346C90.7222 49.5227 92.5249 46.3186 96.1302 43.9221C99.7624 41.4988 104.579 40.2603 110.579 40.2063H121.354V33.8249C121.354 30.163 120.197 27.3224 117.883 25.3029C115.596 23.2835 112.314 22.2737 108.036 22.2737C104.054 22.2737 100.731 23.2969 98.0674 25.3432C95.4037 27.3897 94.072 29.9208 94.072 32.9365L91.8926 32.8556C91.8926 29.3015 93.4531 26.2858 96.5741 23.8085C99.6952 21.3313 103.516 20.0928 108.036 20.0928C112.744 20.0928 116.484 21.2775 119.256 23.6469C122.027 25.9896 123.453 29.3015 123.534 33.5826V54.4635C123.534 59.2564 123.91 62.5145 124.664 64.2377V64.6012H122.161ZM104.161 63.2685C108.251 63.2685 111.762 62.3528 114.695 60.5219C117.655 58.6909 119.874 56.1195 121.354 52.8078V42.4277H111.265C105.023 42.4277 100.247 43.6663 96.9374 46.1436C94.2468 48.163 92.9016 50.6806 92.9016 53.6962C92.9016 56.3619 93.9642 58.6237 96.0899 60.4815C98.2153 62.3394 100.906 63.2685 104.161 63.2685Z" fill="black"/>
<path d="M156.829 22.4758L154.004 22.2334C150.291 22.2334 147.184 23.445 144.682 25.8684C142.179 28.2648 140.538 31.6305 139.758 35.9655V64.6012H137.579V20.9005H139.758V29.988C140.942 26.9454 142.718 24.5355 145.085 22.7583C147.453 20.9814 150.426 20.0928 154.004 20.0928C155.269 20.0928 156.291 20.2409 157.072 20.5371L156.829 22.4758Z" fill="black"/>
<path d="M191.822 64.6012C191.284 62.7433 191.015 60.0776 191.015 56.6043C189.293 59.4045 186.938 61.572 183.952 63.1067C180.966 64.6417 177.589 65.409 173.822 65.409C169.787 65.409 166.531 64.3184 164.056 62.1375C161.607 59.9295 160.383 57.062 160.383 53.5346C160.383 49.5227 162.186 46.3186 165.791 43.9221C169.423 41.4988 174.239 40.2603 180.239 40.2063H191.015V33.8249C191.015 30.163 189.859 27.3224 187.545 25.3029C185.257 23.2835 181.975 22.2737 177.697 22.2737C173.715 22.2737 170.392 23.2969 167.728 25.3432C165.065 27.3897 163.733 29.9208 163.733 32.9365L161.553 32.8556C161.553 29.3015 163.114 26.2858 166.235 23.8085C169.356 21.3313 173.177 20.0928 177.697 20.0928C182.405 20.0928 186.145 21.2775 188.916 23.6469C191.687 25.9896 193.114 29.3015 193.194 33.5826V54.4635C193.194 59.2564 193.571 62.5145 194.324 64.2377V64.6012H191.822ZM173.822 63.2685C177.912 63.2685 181.423 62.3528 184.356 60.5219C187.315 58.6909 189.536 56.1195 191.015 52.8078V42.4277H180.925C174.683 42.4277 169.908 43.6663 166.598 46.1436C163.908 48.163 162.562 50.6806 162.562 53.6962C162.562 56.3619 163.625 58.6237 165.751 60.4815C167.876 62.3394 170.567 63.2685 173.822 63.2685Z" fill="black"/>
<path d="M212.126 9.10693V20.9004H222.053V23.1218H212.126V54.1405C212.126 57.2369 212.622 59.5256 213.618 61.0066C214.641 62.4875 216.337 63.2278 218.703 63.2278C219.887 63.2278 221.327 63.1068 223.023 62.8644L223.385 64.9243C222.498 65.2474 220.978 65.409 218.824 65.409C215.65 65.409 213.377 64.5338 212.004 62.7837C210.632 61.0066 209.933 58.2196 209.905 54.4231V23.1218H201.833V20.9004H209.905V9.10693H212.126Z" fill="black"/>
<path d="M234.469 64.6013C233.201 64.6013 232.237 64.2153 231.576 63.4435C230.915 62.6161 230.584 61.6788 230.584 60.6309C230.584 59.5281 230.915 58.5355 231.576 57.6533L252.405 29.8606L256.123 26.5519L275.135 1.24074C275.906 0.413582 276.926 0 278.192 0C279.35 0 280.259 0.358439 280.921 1.07531C281.582 1.79219 281.94 2.6745 281.994 3.72223C282.05 4.76996 281.746 5.79013 281.085 6.78273L261.001 33.5828L257.447 36.7261L237.444 63.3607C236.619 64.1879 235.625 64.6013 234.469 64.6013ZM277.697 64.6013C276.98 64.6013 276.347 64.4912 275.796 64.2706C275.299 63.9948 274.83 63.5813 274.39 63.0298L255.132 36.3124L252.074 33.7483L232.65 6.78273C231.989 5.90043 231.714 4.93541 231.825 3.88766C231.935 2.83993 232.319 1.93004 232.981 1.15803C233.698 0.386008 234.633 0 235.791 0C237.224 0 238.243 0.413582 238.85 1.24074L257.199 26.7174L260.34 29.2815L280.754 57.6533C281.415 58.5355 281.72 59.5281 281.664 60.6309C281.61 61.7339 281.223 62.6714 280.506 63.4435C279.845 64.2153 278.909 64.6013 277.697 64.6013Z" fill="black"/>
</g>
</mask>
<g mask="url(#mask0_228_168)">
<rect width="282" height="72.8344" fill="white"/>
</g>
</svg>
