<svg width="302" height="85" viewBox="0 0 302 85" fill="none" xmlns="http://www.w3.org/2000/svg">
<path d="M75.7265 16.4339C70.6161 9.81661 63.6581 4.86342 55.7325 2.20079C47.8069 -0.461833 39.2697 -0.714291 31.2006 1.47535C23.1315 3.665 15.8929 8.19839 10.4004 14.5022C4.90796 20.8059 1.40826 28.597 0.343927 36.8899C-0.720403 45.1828 0.698457 53.605 4.42107 61.0915C8.14368 68.578 14.0028 74.7924 21.2575 78.9487C28.5121 83.105 36.8364 85.0166 45.1775 84.4417C53.5187 83.8668 61.502 80.8312 68.1178 75.7188C76.987 68.8651 82.771 58.7694 84.1979 47.6519C85.6247 36.5343 82.5776 25.3052 75.7265 16.4339Z" fill="#FF6C37"/>
<path d="M56.5285 26.9314L38.7043 44.8966L33.667 39.7184C51.2094 22.176 52.9707 23.7611 56.5285 26.9314Z" fill="white"/>
<path d="M38.7043 45.3894C38.5464 45.3854 38.3956 45.3226 38.2816 45.2133L33.2091 40.1408C33.095 40.0226 33.0312 39.8647 33.0312 39.7004C33.0313 39.5362 33.095 39.3783 33.2091 39.2601C50.5049 21.9643 52.865 22.7745 56.9512 26.4732C57.0196 26.5279 57.0743 26.5977 57.111 26.6772C57.1477 26.7567 57.1653 26.8436 57.1626 26.9311C57.1757 27.0162 57.1664 27.1032 57.1355 27.1835C57.1046 27.2639 57.0532 27.3347 56.9864 27.3891L39.1622 45.2133C39.0374 45.3278 38.8737 45.3908 38.7043 45.3894ZM34.5477 39.7181L38.7043 43.8747L55.6126 26.9663C55.0288 26.2348 54.1959 25.7442 53.2731 25.5882C52.3503 25.4322 51.4023 25.6219 50.6106 26.1209C47.5459 27.4947 42.6143 31.6866 34.5477 39.7181Z" fill="#FF6C37"/>
<path d="M43.812 49.8629L38.9508 44.8961L56.775 27.2832C61.5657 31.9682 54.4501 39.7883 43.812 49.8629Z" fill="white"/>
<path d="M43.812 50.4973C43.656 50.4848 43.508 50.4231 43.3893 50.3212L38.4225 45.4601C38.3481 45.2795 38.3481 45.077 38.4225 44.8964C38.3686 44.7485 38.3686 44.5864 38.4225 44.4385L56.2467 26.6143C56.3708 26.4979 56.5345 26.4331 56.7046 26.4331C56.8748 26.4331 57.0385 26.4979 57.1626 26.6143C57.7401 27.1454 58.1964 27.7948 58.5003 28.5182C58.8043 29.2415 58.9487 30.0219 58.9239 30.8062C58.9239 35.5616 53.4991 41.55 44.27 50.286C44.1468 50.4079 43.9847 50.4827 43.812 50.4973ZM39.8667 44.8964L43.8472 48.877C50.8924 42.2193 57.6205 35.3503 57.6557 30.7005C57.694 29.7145 57.368 28.749 56.7399 27.9881L39.8667 44.8964Z" fill="#FF6C37"/>
<path d="M33.808 39.8239L37.3305 43.3464C37.353 43.3663 37.371 43.3907 37.3834 43.418C37.3957 43.4453 37.4021 43.475 37.4021 43.505C37.4021 43.5349 37.3957 43.5646 37.3834 43.5919C37.371 43.6192 37.353 43.6436 37.3305 43.6635L29.8979 45.2486C29.748 45.2805 29.5919 45.2626 29.4531 45.1978C29.3143 45.1329 29.2004 45.0245 29.1288 44.8891C29.0571 44.7537 29.0315 44.5987 29.0559 44.4474C29.0802 44.2962 29.1532 44.157 29.2638 44.051L33.5966 39.7534C33.5966 39.7534 33.7375 39.7534 33.808 39.8239Z" fill="white"/>
<path d="M29.7218 45.9529C29.487 45.95 29.2568 45.8869 29.0533 45.7698C28.8498 45.6526 28.6797 45.4852 28.5593 45.2836C28.4237 45.0282 28.3744 44.7357 28.4189 44.45C28.4633 44.1642 28.5991 43.9006 28.8059 43.6984L33.1035 39.3657C33.2585 39.227 33.4591 39.1504 33.6671 39.1504C33.875 39.1504 34.0757 39.227 34.2307 39.3657L37.7532 42.8882C37.8559 42.9858 37.9299 43.1096 37.9672 43.2462C38.0044 43.3828 38.0035 43.5271 37.9646 43.6632C37.9242 43.802 37.8473 43.9275 37.742 44.0266C37.6367 44.1257 37.5068 44.1949 37.3658 44.2268L29.9331 45.812L29.7218 45.9529ZM33.6671 40.5986L29.6866 44.5791L36.2738 43.1701L33.6671 40.5986Z" fill="#FF6C37"/>
<path d="M66.0043 17.0328C65.0868 16.1473 63.9399 15.5362 62.6932 15.2685C61.4466 15.0008 60.1499 15.0873 58.9498 15.518C57.7497 15.9488 56.694 16.7068 55.9022 17.7062C55.1104 18.7056 54.614 19.9066 54.4691 21.1734C54.3242 22.4402 54.5366 23.7223 55.0823 24.8747C55.628 26.0271 56.4852 27.0039 57.5571 27.6945C58.6289 28.3851 59.8726 28.7622 61.1475 28.7829C62.4224 28.8036 63.6777 28.4673 64.7714 27.8118L59.9807 23.0211L66.0043 17.0328Z" fill="white"/>
<path d="M61.2487 29.432C59.784 29.4127 58.3573 28.9631 57.1461 28.139C55.935 27.315 54.993 26.153 54.4373 24.7976C53.8816 23.4422 53.7368 21.9533 54.021 20.5162C54.3051 19.0792 55.0057 17.7574 56.0353 16.7155C57.4451 15.33 59.3426 14.5537 61.3192 14.5537C63.2958 14.5537 65.1933 15.33 66.6031 16.7155C66.6698 16.7717 66.7234 16.8418 66.7602 16.9209C66.797 17 66.816 17.0862 66.816 17.1734C66.816 17.2607 66.797 17.3469 66.7602 17.426C66.7234 17.5051 66.6698 17.5752 66.6031 17.6314L60.8965 23.0209L65.2292 27.2832C65.2992 27.3504 65.3518 27.4336 65.3825 27.5257C65.4132 27.6177 65.421 27.7158 65.4054 27.8116C65.3948 27.9039 65.3641 27.9928 65.3154 28.0719C65.2667 28.1511 65.2012 28.2185 65.1236 28.2695C63.9598 28.998 62.6213 29.3995 61.2487 29.432ZM61.2487 15.7644C60.0272 15.7706 58.8346 16.1376 57.8209 16.8193C56.8072 17.5009 56.0174 18.4669 55.5508 19.5958C55.0841 20.7248 54.9614 21.9664 55.198 23.1649C55.4347 24.3634 56.0201 25.4652 56.8808 26.3321C57.7562 27.2121 58.8769 27.8074 60.0962 28.0399C61.3155 28.2725 62.5767 28.1315 63.7145 27.6355L59.5579 23.4788C59.4895 23.4242 59.4348 23.3543 59.3982 23.2748C59.3615 23.1953 59.3438 23.1084 59.3466 23.0209C59.3491 22.9394 59.3693 22.8593 59.4058 22.7863C59.4423 22.7133 59.4942 22.6492 59.5579 22.5982L65.0531 17.0678C63.9612 16.2297 62.6251 15.772 61.2487 15.7644Z" fill="#FF6C37"/>
<path d="M66.1099 17.1382L60.0863 23.1266L64.877 27.9173C65.3593 27.6406 65.8085 27.3097 66.2156 26.9309C67.4713 25.6036 68.1622 23.8403 68.1425 22.0132C68.1228 20.1861 67.394 18.4381 66.1099 17.1382Z" fill="white"/>
<path d="M64.7714 28.4464C64.6922 28.4506 64.6131 28.437 64.5399 28.4065C64.4667 28.376 64.4014 28.3294 64.3486 28.2702L59.558 23.4795C59.4896 23.4249 59.4349 23.355 59.3982 23.2755C59.3615 23.196 59.3438 23.1091 59.3466 23.0216C59.3491 22.94 59.3693 22.86 59.4058 22.787C59.4423 22.714 59.4942 22.6498 59.558 22.5989L65.5463 16.7162C65.6042 16.629 65.6827 16.5575 65.7749 16.508C65.8671 16.4585 65.9701 16.4326 66.0747 16.4326C66.1793 16.4326 66.2823 16.4585 66.3745 16.508C66.4667 16.5575 66.5453 16.629 66.6031 16.7162C67.3061 17.4049 67.8645 18.2271 68.2458 19.1344C68.627 20.0416 68.8234 21.0159 68.8234 22C68.8234 22.9842 68.627 23.9584 68.2458 24.8657C67.8645 25.773 67.3061 26.5951 66.6031 27.2839C66.1889 27.7242 65.7145 28.1037 65.1941 28.4111C65.0631 28.4775 64.9115 28.4901 64.7714 28.4464ZM60.8965 23.0216L64.877 27.0021C65.1507 26.8102 65.4097 26.5982 65.652 26.368C66.822 25.201 67.4808 23.6173 67.4837 21.9648C67.4857 20.4863 66.947 19.058 65.969 17.9491L60.8965 23.0216Z" fill="#FF6C37"/>
<path d="M57.2683 27.671C56.7914 27.2227 56.1615 26.9731 55.507 26.9731C54.8525 26.9731 54.2226 27.2227 53.7457 27.671L37.7885 43.593L40.4304 46.2702L57.3035 31.4754C57.5615 31.2292 57.7662 30.9327 57.905 30.6042C58.0437 30.2757 58.1137 29.9222 58.1104 29.5656C58.1071 29.209 58.0306 28.8569 57.8858 28.531C57.7409 28.2051 57.5308 27.9124 57.2683 27.671Z" fill="white"/>
<path d="M40.2894 46.9045C40.1315 46.9005 39.9807 46.8377 39.8667 46.7283L37.1895 44.0512C37.0755 43.933 37.0117 43.7751 37.0117 43.6109C37.0117 43.4466 37.0755 43.2887 37.1895 43.1705L53.1468 27.2837C53.7544 26.6771 54.5779 26.3364 55.4365 26.3364C56.295 26.3364 57.1185 26.6771 57.7261 27.2837C58.0401 27.5967 58.2864 27.9708 58.45 28.3828C58.6136 28.7948 58.691 29.236 58.6772 29.6791C58.6593 30.1198 58.5534 30.5525 58.3659 30.9517C58.1783 31.351 57.9129 31.7087 57.5852 32.004L40.7121 46.7988C40.5895 46.8858 40.4386 46.9236 40.2894 46.9045ZM38.4224 43.5932L40.1837 45.3898L56.7398 30.9824C56.9429 30.8068 57.1073 30.5908 57.2225 30.3483C57.3378 30.1057 57.4013 29.8418 57.4091 29.5734C57.4196 29.3037 57.3715 29.0349 57.2682 28.7856C57.1648 28.5362 57.0086 28.3123 56.8103 28.1291C56.4406 27.7613 55.9403 27.5548 55.4189 27.5548C54.8974 27.5548 54.3971 27.7613 54.0274 28.1291L38.4224 43.5932Z" fill="#FF6C37"/>
<path d="M25.4242 61.7342C25.3785 61.7951 25.3537 61.8693 25.3537 61.9455C25.3537 62.0217 25.3785 62.0959 25.4242 62.1569L26.1287 65.2215C26.1582 65.4001 26.132 65.5833 26.0536 65.7464C25.9752 65.9095 25.8485 66.0445 25.6907 66.1331C25.5329 66.2216 25.3516 66.2594 25.1716 66.2412C24.9915 66.2231 24.8214 66.1499 24.6844 66.0317L19.8585 61.3819L34.8999 46.2349H40.1133L43.6359 49.7574C38.1407 54.5626 32.0132 58.5923 25.4242 61.7342Z" fill="white"/>
<path d="M25.1072 66.9128C24.7084 66.9052 24.3287 66.7407 24.0504 66.4548L19.4359 61.8403C19.3675 61.7856 19.3128 61.7157 19.2761 61.6363C19.2394 61.5568 19.2218 61.4698 19.2245 61.3823C19.2271 61.3008 19.2473 61.2207 19.2838 61.1477C19.3202 61.0748 19.3722 61.0106 19.4359 60.9596L34.5829 45.7773C34.6679 45.6873 34.7786 45.6257 34.9 45.6012H40.1486C40.2854 45.5529 40.4345 45.5529 40.5713 45.6012L44.0939 49.1238C44.1609 49.1856 44.212 49.2628 44.2427 49.3487C44.2734 49.4346 44.2828 49.5266 44.27 49.6169C44.2728 49.7044 44.2551 49.7914 44.2184 49.8709C44.1817 49.9504 44.127 50.0202 44.0587 50.0749L43.7768 50.3215C38.2591 54.9216 32.1885 58.8148 25.7061 61.9107L26.3753 64.764C26.4281 64.9842 26.4307 65.2135 26.3831 65.4349C26.3355 65.6563 26.2389 65.8642 26.1003 66.0433C25.9617 66.2224 25.7848 66.3682 25.5824 66.4699C25.3801 66.5716 25.1575 66.6267 24.9311 66.631L25.1072 66.9128ZM20.8097 61.3823L24.9663 65.5742C25.0051 65.6088 25.0552 65.628 25.1072 65.628C25.1592 65.628 25.2094 65.6088 25.2481 65.5742C25.2739 65.5383 25.2878 65.4951 25.2878 65.4509C25.2878 65.4067 25.2739 65.3635 25.2481 65.3276L24.5436 62.263C24.4887 62.043 24.5113 61.8108 24.6075 61.6055C24.7037 61.4001 24.8678 61.2343 25.072 61.1357C31.3802 58.0813 37.2944 54.2726 42.6849 49.7931L39.7963 46.9046H35.0761L20.8097 61.3823Z" fill="#FF6C37"/>
<path d="M16.2302 65.0099L19.7528 61.4873L25.1775 66.9121L16.5472 66.3132C16.3985 66.3024 16.257 66.2447 16.1432 66.1483C16.0293 66.052 15.949 65.922 15.9138 65.7771C15.8785 65.6322 15.8902 65.4798 15.947 65.3419C16.0039 65.2041 16.103 65.0878 16.2302 65.0099Z" fill="white"/>
<path d="M25.2833 67.4409L16.6882 66.842C16.4382 66.8185 16.1998 66.7252 16.0003 66.5726C15.8008 66.4201 15.6483 66.2145 15.5601 65.9793C15.4719 65.7442 15.4517 65.489 15.5016 65.2429C15.5516 64.9968 15.6698 64.7697 15.8428 64.5876L19.3653 61.065C19.4835 60.951 19.6414 60.8872 19.8057 60.8872C19.9699 60.8872 20.1278 60.951 20.246 61.065L25.6355 66.4546C25.71 66.5569 25.7501 66.6802 25.7501 66.8068C25.7501 66.9334 25.71 67.0567 25.6355 67.1591C25.5543 67.2909 25.4298 67.3905 25.2833 67.4409ZM16.6882 65.4682L23.7333 65.9262L19.8585 62.2979L16.6882 65.4682Z" fill="#FF6C37"/>
<path d="M40.6064 46.6573L33.4908 47.7493L37.6123 43.6631L40.6064 46.6573Z" fill="white"/>
<path d="M33.4908 48.4189C33.3726 48.4225 33.2559 48.3909 33.1556 48.3282C33.0553 48.2655 32.9758 48.1745 32.9272 48.0667C32.8527 47.9643 32.8126 47.841 32.8126 47.7144C32.8126 47.5878 32.8527 47.4645 32.9272 47.3622L37.0134 43.2408C37.1374 43.1244 37.3012 43.0596 37.4713 43.0596C37.6414 43.0596 37.8052 43.1244 37.9292 43.2408L40.9234 46.2349C40.9828 46.33 41.0142 46.4399 41.0142 46.552C41.0142 46.6641 40.9828 46.7739 40.9234 46.869C40.8966 46.986 40.8352 47.0922 40.7473 47.1738C40.6593 47.2555 40.5489 47.3088 40.4303 47.3269L33.3851 48.4189H33.4908ZM37.6122 44.5793L35.3225 46.869L39.2678 46.2702L37.6122 44.5793Z" fill="#FF6C37"/>
<path d="M40.6064 46.6573L35.6396 47.2913C35.5066 47.3216 35.3675 47.3083 35.2427 47.2532C35.118 47.1982 35.0143 47.1044 34.947 46.9857C34.8798 46.8671 34.8526 46.7299 34.8695 46.5946C34.8864 46.4593 34.9464 46.3331 35.0408 46.2346L37.6122 43.6631L40.6064 46.6573Z" fill="white"/>
<path d="M35.4988 47.9611C35.2685 47.959 35.0429 47.896 34.8449 47.7785C34.6469 47.6609 34.4836 47.493 34.3716 47.2918C34.2372 47.0507 34.1851 46.7724 34.2232 46.499C34.2614 46.2256 34.3877 45.9722 34.5829 45.7771L37.1544 43.2056C37.2785 43.0892 37.4422 43.0244 37.6124 43.0244C37.7825 43.0244 37.9462 43.0892 38.0703 43.2056L41.0645 46.1998C41.1534 46.2842 41.2159 46.3926 41.2445 46.5119C41.2731 46.6311 41.2665 46.7561 41.2255 46.8717C41.1845 46.9872 41.1108 47.0884 41.0135 47.163C40.9161 47.2375 40.7993 47.2823 40.677 47.2918L35.7454 47.9258L35.4988 47.9611ZM35.4988 46.6577L39.2327 46.1998L37.5771 44.5442L35.4636 46.6577H35.4988Z" fill="#FF6C37"/>
<path d="M66.1451 21.189C66.0788 21.078 65.974 20.9951 65.8506 20.9562C65.7273 20.9172 65.5939 20.9249 65.4758 20.9777C65.4177 21.0074 65.3661 21.0484 65.3239 21.0983C65.2818 21.1481 65.2499 21.2059 65.2303 21.2681C65.2106 21.3304 65.2035 21.396 65.2094 21.461C65.2152 21.526 65.234 21.5892 65.2645 21.647C65.3854 21.9014 65.433 22.1846 65.4019 22.4646C65.3708 22.7446 65.2622 23.0104 65.0883 23.2321C65.0425 23.275 65.0059 23.3268 64.9809 23.3843C64.9559 23.4419 64.943 23.504 64.943 23.5668C64.943 23.6295 64.9559 23.6916 64.9809 23.7492C65.0059 23.8067 65.0425 23.8586 65.0883 23.9014C65.1789 23.9368 65.2795 23.9368 65.3701 23.9014C65.452 23.9225 65.5382 23.9205 65.619 23.8956C65.6998 23.8708 65.7722 23.824 65.8281 23.7605C66.1181 23.4054 66.3017 22.9755 66.3578 22.5205C66.4139 22.0655 66.3402 21.6039 66.1451 21.189Z" fill="#FF6C37"/>
<path d="M235.557 35.7764C234.043 38.9309 232.781 41.8332 231.393 44.7354C231.014 45.4925 230.762 46.5019 230.005 46.5019C228.995 46.5019 228.869 45.4925 228.49 44.6092C227.355 42.0855 226.219 39.5619 225.084 37.1644C224.831 36.7858 224.831 36.0287 224.326 36.1549C223.696 36.2811 223.822 37.0382 223.822 37.5429C223.822 42.5903 223.822 47.6376 223.822 52.8111C223.822 53.5682 223.822 54.3253 223.696 55.0824C223.569 55.8395 223.065 56.3443 222.308 56.3443C221.55 56.2181 221.298 55.7133 221.172 55.0824C221.172 54.5777 221.172 54.073 221.172 53.5682C221.172 46.1234 221.172 38.8048 221.172 31.3599C221.172 30.3505 220.919 28.9625 222.055 28.5839C223.317 28.2054 224.074 29.2148 224.579 30.3505C225.967 33.2527 227.102 36.1549 228.49 38.9309C228.869 39.688 228.995 41.0761 230.005 41.2022C231.14 41.2022 231.267 39.688 231.645 38.9309C233.033 36.1549 234.169 33.3789 235.557 30.6028C236.061 29.4672 236.692 28.3315 238.08 28.5839C239.468 28.9625 239.09 30.3505 239.09 31.4861C239.09 38.8048 239.09 46.1234 239.09 53.442C239.09 54.5777 239.468 56.3443 237.828 56.3443C236.062 56.3443 236.44 54.5777 236.44 53.3159C236.44 48.5209 236.44 43.7259 236.44 38.8048C236.314 37.7953 236.566 36.7858 235.557 35.7764Z" fill="#FF6C37"/>
<path d="M289.689 36.4066C288.932 37.1637 289.185 38.1732 289.185 39.0564C289.185 44.1038 289.185 49.0249 289.185 54.0723C289.185 54.9555 289.437 56.3436 288.175 56.3436C286.787 56.4698 286.787 55.0817 286.787 54.0723C286.787 46.3751 286.787 38.6779 286.787 30.8545C286.787 29.9712 286.661 28.8356 287.671 28.5832C288.806 28.2047 289.437 29.0879 289.942 30.0974C291.961 34.64 294.106 39.1826 296.125 43.8514C296.503 44.8609 297.008 45.7442 297.387 46.7536C297.639 47.2584 297.639 48.0155 298.396 47.7631C299.027 47.5107 298.901 46.7536 298.901 46.2489C298.901 41.3277 298.901 36.4066 298.901 31.4854C298.901 30.8545 298.901 30.3498 299.027 29.7189C299.153 28.8356 299.658 28.457 300.415 28.457C301.172 28.5832 301.425 29.2141 301.425 29.9712C301.425 31.864 301.425 33.7567 301.425 35.6495C301.425 41.5801 301.425 47.3846 301.425 53.3152C301.425 54.3246 301.803 55.7127 300.541 56.0912C299.153 56.5959 298.649 55.2079 298.144 54.0723C295.746 48.8987 293.475 43.599 291.078 38.4255C290.699 37.6684 290.573 36.7851 289.689 36.4066Z" fill="#FF6C37"/>
<path d="M146.471 42.3373C146.345 45.1134 146.597 47.7632 146.219 50.5393C145.588 54.4509 143.443 56.3437 139.531 56.3437C135.367 56.3437 132.97 54.5771 132.465 50.6655C131.834 44.9872 131.708 39.1828 132.465 33.5045C132.97 29.8452 135.493 28.0786 139.279 28.0786C143.064 28.0786 145.462 29.9714 146.093 33.5045C146.724 36.5329 146.345 39.4351 146.471 42.3373ZM143.948 42.3373C143.948 40.1922 144.074 38.0471 143.948 35.902C143.821 32.6212 142.055 30.7285 139.153 30.8547C136.377 30.8547 134.736 32.6212 134.61 35.902C134.484 40.1922 134.484 44.6087 134.61 48.8989C134.736 52.1797 136.377 53.9462 139.153 54.0724C142.055 54.0724 143.821 52.3058 143.948 48.8989C144.074 46.7538 143.948 44.6086 143.948 42.3373Z" fill="#FF6C37"/>
<path d="M271.14 54.5774C271.14 55.4607 271.014 56.0916 270.257 56.2178C269.626 56.3439 269.122 56.2178 268.869 55.4607C268.743 54.9559 268.491 54.325 268.364 53.8203C267.229 49.9086 267.229 49.9086 263.822 49.9086C263.443 49.9086 263.065 49.9086 262.686 49.9086C258.396 49.9086 258.396 49.9086 256.882 54.4512C256.629 55.3345 256.503 56.5963 255.241 56.2178C253.98 55.713 254.358 54.4512 254.61 53.4417C256.629 45.8707 258.648 38.1735 260.793 30.6025C261.172 29.4669 261.298 27.8265 262.939 27.9527C264.327 28.0789 264.579 29.4669 264.831 30.6025C266.724 37.795 268.743 44.9874 270.636 52.3061C270.888 53.0632 271.014 53.8203 271.14 54.5774ZM262.686 47.5111C263.065 47.5111 263.569 47.5111 263.948 47.5111C266.724 47.5111 266.85 47.3849 265.967 44.2303C265.21 41.2019 264.453 38.1735 263.569 35.2713C263.443 34.6404 263.569 33.7571 262.812 33.7571C262.055 33.7571 261.929 34.6404 261.803 35.3975C261.172 37.9212 260.541 40.4448 259.784 42.9685C258.522 47.5111 258.648 47.5111 262.686 47.5111Z" fill="#FF6C37"/>
<path d="M102.055 42.3373C102.055 38.4257 102.055 34.514 102.055 30.6023C102.055 28.7095 102.686 28.0786 104.2 28.0786C105.588 28.0786 107.102 28.0786 108.49 28.0786C114.294 28.2048 116.44 30.8546 116.313 37.5424C116.187 42.085 113.916 44.7348 110.004 44.9872C108.869 44.9872 107.859 45.1134 106.723 44.9872C104.957 44.861 104.326 45.7443 104.452 47.6371C104.578 49.9084 104.452 52.1796 104.452 54.3248C104.452 55.208 104.326 56.2175 103.19 56.2175C102.055 56.2175 102.055 55.2081 102.055 54.1986C102.055 50.2869 102.055 46.249 102.055 42.3373ZM107.985 42.7159C111.645 42.7159 113.033 41.8326 113.664 39.1828C114.294 36.5329 114.294 34.0092 112.402 31.9903C110.383 29.9714 107.733 30.8547 105.335 30.9808C104.452 30.9808 104.452 32.1165 104.452 32.9998C104.452 34.8925 104.452 36.7853 104.452 38.678C104.452 42.7159 104.452 42.7159 107.985 42.7159Z" fill="#FF6C37"/>
<path d="M168.932 56.5966C166.282 56.5966 164.137 56.0919 162.497 54.0729C161.992 53.442 161.361 52.5587 162.118 51.6754C162.749 50.9183 163.506 51.4231 164.011 52.054C165.525 53.6944 167.165 54.1991 169.184 54.0729C171.077 53.9467 172.465 53.0634 173.222 50.9183C173.979 48.7732 173.474 46.7543 172.086 45.2401C170.698 43.7259 168.932 43.095 167.165 42.2117C164.642 41.076 162.749 39.4356 162.497 36.0287C162.118 31.4861 164.137 28.9624 168.553 28.0791C170.446 27.7006 172.213 28.2053 173.853 28.8362C174.736 29.0886 175.493 29.8457 175.115 30.9813C174.736 32.2432 173.853 31.7384 173.096 31.3599C171.456 30.4766 169.689 30.4766 168.049 30.729C166.661 30.9813 165.399 31.8646 165.146 33.6312C164.894 35.3978 165.146 36.912 166.408 38.0476C168.049 39.4356 169.941 39.9404 171.708 40.8237C174.484 42.2117 175.998 44.6092 175.998 48.1423C175.998 51.4231 175.241 53.9467 172.465 55.5871C171.203 56.4704 169.815 56.3442 168.932 56.5966Z" fill="#FF6C37"/>
<path d="M196.566 43.3468C196.566 40.066 196.44 36.9115 196.566 33.6307C196.692 31.2332 195.809 30.4761 193.916 30.7285C193.159 30.8546 192.276 30.7285 191.519 30.7285C190.762 30.7285 190.257 30.3499 190.257 29.3404C190.257 28.5833 190.762 28.0786 191.393 28.0786C195.683 28.0786 199.973 28.0786 204.263 28.0786C204.894 28.0786 205.399 28.4572 205.399 29.2143C205.399 30.0976 204.894 30.6023 204.137 30.6023C203.254 30.6023 202.244 30.7285 201.361 30.6023C199.595 30.4761 199.09 31.3594 199.09 33.2521C199.09 39.4351 199.09 45.7443 199.09 51.9273C199.09 52.5582 199.09 53.3153 199.09 53.9462C199.09 54.9557 198.964 56.0913 197.828 56.0913C196.566 56.0913 196.566 54.9557 196.566 53.9462C196.566 50.9178 196.566 48.0156 196.566 44.9872C196.566 44.4825 196.566 43.9777 196.566 43.3468Z" fill="#FF6C37"/>
</svg>
