<svg width="305" height="56" viewBox="0 0 305 56" fill="none" xmlns="http://www.w3.org/2000/svg">
<path d="M82.3072 16.0723C83.1244 16.0723 83.8249 16.7338 83.8249 17.59V46.5823C83.8249 47.3996 83.0855 48.0612 82.3072 48.0612H78.3766C77.6372 48.0612 76.8979 47.4774 76.8979 46.6602V43.975C74.9131 46.8937 71.4885 48.9173 66.5073 48.9173C58.1793 48.9173 53.0424 43.3912 53.0424 35.18V17.5122C53.0424 16.6949 53.7818 16.0334 54.5601 16.0334H58.4906C59.3079 16.0334 59.9694 16.6949 59.9694 17.5122V34.0514C59.9694 39.3829 62.7714 42.9243 68.2974 42.9243C73.7067 42.9243 76.8979 39.2662 76.8979 34.1293V17.5122C76.8979 16.6949 77.6372 16.0334 78.3766 16.0334H82.3072M24.3224 0C10.8575 0 0 10.4684 0 24.4392C0 38.4489 10.8575 48.8784 24.3224 48.8784C26.6185 48.8784 28.8367 48.5671 30.9382 47.9833L33.5844 54.7936C33.8568 55.533 34.4017 56 35.3746 56H39.5775C40.5893 56 41.3287 55.3384 40.8617 54.0542L37.4371 45.1425C44.1696 40.9006 48.6449 33.3899 48.6449 24.4003C48.6449 10.4684 37.7874 0 24.3224 0ZM34.9076 38.6435L31.8332 30.6657C31.5608 30.0042 31.016 29.3815 29.8485 29.3815H25.8402C24.8284 29.3815 24.05 30.0431 24.517 31.3273L28.5643 41.7957C27.2411 42.1459 25.8013 42.3016 24.3224 42.3016C14.4767 42.3016 7.47186 34.5573 7.47186 24.4392C7.47186 14.3211 14.4767 6.57679 24.3224 6.57679C34.1682 6.57679 41.173 14.3211 41.173 24.4392C41.173 30.3544 38.7992 35.4135 34.9076 38.6435ZM304.828 46.4267C305.179 47.2439 304.751 48.0222 303.778 48.0222H299.38C298.563 48.0222 297.901 47.6331 297.629 46.8158L289.495 24.9451L281.245 46.8158C280.895 47.672 280.311 48.0222 279.494 48.0222H275.564C274.746 48.0222 274.163 47.672 273.812 46.8158L265.484 24.8284L257.273 46.8158C256.923 47.6331 256.339 48.0222 255.522 48.0222H251.397C250.58 48.0222 249.996 47.6331 249.646 46.8158L241.512 24.8284L233.106 46.8158C232.756 47.672 232.172 48.0222 231.355 48.0222H227.425C226.607 48.0222 226.024 47.672 225.673 46.8158L217.462 24.8284L209.251 46.8158C208.978 47.6331 208.317 48.0222 207.5 48.0222H203.219C202.207 48.0222 201.818 47.205 202.168 46.4267L213.298 17.3176C213.648 16.4614 214.232 16.0334 215.049 16.0334H219.836C220.653 16.0334 221.237 16.4225 221.587 17.3176L229.604 38.5657L237.543 17.3176C237.893 16.4614 238.477 16.0334 239.294 16.0334H244.003C244.82 16.0334 245.404 16.4225 245.754 17.3176L253.615 38.5657L261.476 17.3176C261.826 16.4614 262.41 16.0334 263.227 16.0334H267.975C268.792 16.0334 269.376 16.4225 269.726 17.3176L277.704 38.5657L285.487 17.3176C285.837 16.4614 286.421 16.0334 287.238 16.0334H292.025C292.842 16.0334 293.426 16.4225 293.776 17.3176L304.828 46.4267ZM120.406 16.0723H116.475C115.658 16.0723 114.958 16.7338 114.958 17.59V20.2363C112.973 17.2397 109.081 15.0994 104.489 15.0994C95.811 15.0994 88.378 21.9486 88.378 31.95C88.378 42.0681 95.8499 48.8784 104.45 48.8784C109.12 48.8784 112.895 46.738 114.997 43.7415V46.5434C114.997 47.3607 115.736 48.0222 116.514 48.0222H120.445C121.262 48.0222 121.924 47.3607 121.924 46.5434V17.59C121.885 16.7338 121.223 16.0723 120.406 16.0723ZM105.229 42.4962C99.508 42.4962 95.4218 37.8263 95.4218 32.0278C95.4218 26.1515 99.4691 21.6372 105.229 21.6372C110.91 21.6372 115.035 26.1515 115.035 32.0278C114.997 37.8652 110.871 42.4962 105.229 42.4962ZM167.3 43.508C168.156 44.5587 167.416 45.376 166.949 45.7262C164.225 47.7887 160.606 48.9173 156.675 48.9173C146.752 48.9173 140.136 41.64 140.136 32.0667C140.136 22.4934 146.752 15.1383 156.675 15.1383C160.606 15.1383 164.186 16.2669 166.949 18.3294C167.416 18.6796 168.078 19.3801 167.3 20.5476L165.432 23.155C164.692 24.1668 163.836 23.8944 163.097 23.4274C161.345 22.3767 159.283 21.4816 156.909 21.4816C151.111 21.4816 147.258 26.1515 147.258 32.0667C147.258 37.9819 151.111 42.6129 156.909 42.6129C159.322 42.6129 161.229 41.6789 162.98 40.6671C163.719 40.278 164.498 39.9277 165.315 41.0174L167.3 43.508ZM185.823 15.1772C176.484 15.1772 169.051 22.4934 169.051 32.0278C169.051 41.64 176.523 48.8784 185.823 48.8784C195.163 48.8784 202.596 41.6011 202.596 32.0278C202.635 22.5323 195.163 15.1772 185.823 15.1772ZM185.823 42.4573C180.103 42.4573 176.017 37.8652 176.017 32.0667C176.017 26.1904 180.064 21.6762 185.823 21.6762C191.544 21.6762 195.63 26.1904 195.63 32.0667C195.63 37.8652 191.583 42.4573 185.823 42.4573ZM134.182 0.85615C135.038 0.85615 135.661 1.59555 135.661 2.37387V46.5045C135.661 47.3218 135.077 48.0222 134.182 48.0222H130.252C129.434 48.0222 128.734 47.2828 128.734 46.5045V2.41279C128.734 1.59555 129.473 0.895066 130.252 0.895066H134.182" fill="#ffffff"/>
</svg>
