<svg width="281" height="304" viewBox="0 0 281 304" fill="none" xmlns="http://www.w3.org/2000/svg">
<path d="M23 219.5L149.7 293.3L276.3 218.9L149.5 145L23 219.5Z" fill="#E6E7E8"/>
<path d="M176.5 96.3V103.7L214.3 81.5V74.2L176.5 96.3Z" fill="url(#paint0_linear_19_7483)"/>
<path d="M176.6 96.2999V103.7L138.9 81.6999V74.3999L176.6 96.2999Z" fill="url(#paint1_linear_19_7483)"/>
<path d="M138.9 74.3999L176.6 96.3L214.3 74.2L176.5 52.2L138.9 74.3999Z" fill="url(#paint2_linear_19_7483)"/>
<path d="M176.6 95.6999L139.4 74.0999L138.9 74.3999L176.6 96.2999L214.3 74.1999L213.7 73.8999L176.6 95.6999Z" fill="url(#paint3_radial_19_7483)"/>
<path d="M176.5 85.9999V93.2999L214.3 71.1999V63.8999L176.5 85.9999Z" fill="url(#paint4_linear_19_7483)"/>
<path d="M176.6 86V93.3L138.9 71.4V64L176.6 86Z" fill="url(#paint5_linear_19_7483)"/>
<path d="M138.9 63.9999L176.6 85.9999L214.3 63.8999L176.5 41.8999L138.9 63.9999Z" fill="url(#paint6_linear_19_7483)"/>
<path d="M176.6 85.3998L139.4 63.6998L138.9 63.9998L176.6 85.9998L214.3 63.8998L213.7 63.5999L176.6 85.3998Z" fill="url(#paint7_radial_19_7483)"/>
<path d="M176.5 75.7V83L214.3 60.9V53.5L176.5 75.7Z" fill="url(#paint8_linear_19_7483)"/>
<path d="M176.6 75.7V83L138.9 61V53.7L176.6 75.7Z" fill="url(#paint9_linear_19_7483)"/>
<path d="M138.9 53.7L176.6 75.7L214.3 53.5L176.5 31.5L138.9 53.7Z" fill="url(#paint10_linear_19_7483)"/>
<path d="M176.6 75.1L139.4 53.3999L138.9 53.7L176.6 75.7L214.3 53.5L213.7 53.2L176.6 75.1Z" fill="url(#paint11_radial_19_7483)"/>
<path d="M176.5 65.3V72.7L214.3 50.5V43.2L176.5 65.3Z" fill="url(#paint12_linear_19_7483)"/>
<path d="M176.6 65.2999V72.6999L138.9 50.6999V43.3999L176.6 65.2999Z" fill="url(#paint13_linear_19_7483)"/>
<path d="M138.9 43.4L176.6 65.3L214.3 43.2L176.5 21.2L138.9 43.4Z" fill="url(#paint14_linear_19_7483)"/>
<path d="M144.8 43.4L176.5 24.7L208.3 43.2L176.6 61.8999L144.8 43.4Z" fill="#45108A"/>
<path d="M176.5 26.2L207 44L208.3 43.2L176.5 24.7L144.8 43.4L146.1 44.1L176.5 26.2Z" fill="url(#paint15_linear_19_7483)"/>
<path d="M176.5 26.2L207 44L208.3 43.2L176.5 24.7V26.2Z" fill="#330A66"/>
<path d="M176.6 64.6999L139.4 43.0999L138.9 43.3999L176.6 65.2999L214.3 43.1999L213.7 42.8999L176.6 64.6999Z" fill="url(#paint16_radial_19_7483)"/>
<path d="M196 45.1C192.1 42.9 189.5 40 188.5 36.9C183.1 36.3 178.1 34.8 174.3 32.6L174.2 32.5L172.1 34C164.7 39.1 163.5 44.3 164.4 50.8L164.6 50.9C176 51.5 184.9 50.8 193.8 46.5L196.3 45.3L196 45.1Z" fill="#43E8E1"/>
<path d="M188.5 42.5C183.1 41.9 178.1 40.4 174.2 38.1L174.1 38L172 39.5C167.1 42.9 164.9 46.3 164.3 50.1C164.3 50.3 164.3 50.5 164.4 50.7L164.6 50.8C175.1 51.3 183.5 50.8 191.7 47.3C190.1 45.9 189 44.3 188.5 42.5Z" fill="url(#paint17_radial_19_7483)"/>
<path d="M164 0V50.8L164.3 50.7L164.5 50.8C175.9 51.4 184.8 50.7 193.7 46.4L196.2 45.2V0H164Z" fill="url(#paint18_linear_19_7483)"/>
<path d="M200.5 188.4V226.7L238.3 204.6V166.2L200.5 188.4Z" fill="url(#paint19_linear_19_7483)"/>
<path d="M200.6 188.4V226.7L162.9 204.7V166.4L200.6 188.4Z" fill="#330A66"/>
<path d="M162.9 166.4L200.6 188.4L238.3 166.2L200.5 144.2L162.9 166.4Z" fill="#45108A"/>
<path d="M200.6 187.8L163.4 166.1L162.9 166.4L200.6 188.4L238.3 166.2L237.8 165.9L200.6 187.8Z" fill="url(#paint20_radial_19_7483)"/>
<path d="M155.7 213.8V252.1L193.5 230V191.6L155.7 213.8Z" fill="url(#paint21_linear_19_7483)"/>
<path d="M155.8 213.8V252.1L118.1 230.1V191.8L155.8 213.8Z" fill="#330A66"/>
<path d="M118.1 191.8L155.8 213.8L193.5 191.6L155.7 169.6L118.1 191.8Z" fill="#45108A"/>
<path d="M155.8 213.2L118.6 191.5L118.1 191.8L155.8 213.8L193.5 191.6L192.9 191.3L155.8 213.2Z" fill="url(#paint22_radial_19_7483)"/>
<path d="M176.4 65.5L138.6 43.5L115.4 57.6V95.9L153 117.9H153.1L176.4 103.9V65.5Z" fill="url(#paint23_linear_19_7483)"/>
<path d="M243.2 214.2V252.5L280.9 230.4V192L243.2 214.2Z" fill="url(#paint24_linear_19_7483)"/>
<path d="M243.2 214.2V252.5L205.5 230.6V192.2L243.2 214.2Z" fill="#330A66"/>
<path d="M205.5 192.2L243.2 214.2L280.9 192L243.2 170.1L205.5 192.2Z" fill="#45108A"/>
<path d="M199.5 239.6V277.9L237.2 255.8V217.5L199.5 239.6Z" fill="url(#paint25_linear_19_7483)"/>
<path d="M199.5 239.6V277.9L161.8 256V217.6L199.5 239.6Z" fill="#330A66"/>
<path d="M161.8 217.6L199.5 239.6L237.2 217.5L199.5 195.5L161.8 217.6Z" fill="#45108A"/>
<path d="M49.9 183L33.5 192.7L71.2 214.6V253L87.6 243.3V204.9L49.9 183Z" fill="url(#paint26_linear_19_7483)"/>
<path d="M55.1 224.3V262.6L71.5 253V214.6L55.1 224.3Z" fill="url(#paint27_linear_19_7483)"/>
<path d="M55.1 224.3V262.6L17.4 240.7V202.3L55.1 224.3Z" fill="url(#paint28_linear_19_7483)"/>
<path d="M20.4 238.9V207.6L52.1 226V257.4L20.4 238.9Z" fill="#330A66"/>
<path d="M21.5 238.4V208.2L20.4 207.6V238.9L52.1 257.4V256.2L21.5 238.4Z" fill="url(#paint29_linear_19_7483)"/>
<path d="M21.5 238.4L20.4 238.9L52.1 257.4V256.2L21.5 238.4Z" fill="#45108A"/>
<path d="M17.4 202.3L55.1 224.3L71.5 214.6L33.7 192.6L17.4 202.3Z" fill="url(#paint30_linear_19_7483)"/>
<path d="M55.1 223.7L17.9 202L17.4 202.3L55.1 224.3L71.5 214.6L71 214.3L55.1 223.7Z" fill="url(#paint31_radial_19_7483)"/>
<path d="M38 234.5V242.9L34.2 240.7V232.3C32.7 230.6 31.7 228.3 31.7 226.2C31.7 223.4 33.7 222.3 36.1 223.7C38.5 225.1 40.5 228.5 40.5 231.3C40.5 233.5 39.5 234.6 38 234.5Z" fill="#43E8E1"/>
<path d="M38 234.5V242.9L34.2 240.7V232.3C32.7 230.6 31.7 228.3 31.7 226.2C31.7 223.4 33.7 222.3 36.1 223.7C38.5 225.1 40.5 228.5 40.5 231.3C40.5 233.5 39.5 234.6 38 234.5Z" fill="url(#paint32_radial_19_7483)"/>
<path d="M36.1 223.8C34.4 222.8 33 223.1 32.2 224.2L0 241.6V263L38 242.9V234.5C39.5 234.6 40.5 233.4 40.5 231.4C40.5 228.6 38.5 225.2 36.1 223.8Z" fill="url(#paint33_linear_19_7483)"/>
<path d="M113.1 240V278.3L150.8 256.2V217.8L113.1 240Z" fill="url(#paint34_linear_19_7483)"/>
<path d="M113.1 240V278.3L75.4 256.4V218L113.1 240Z" fill="#330A66"/>
<path opacity="0.2" d="M86.7 244.2V224.6L75.4 218V250.8L86.7 244.2Z" fill="url(#paint35_radial_19_7483)"/>
<path d="M75.4 218L113.1 240L150.8 217.8L113 195.9L75.4 218Z" fill="#45108A"/>
<path d="M113.1 239.4L75.9 217.7L75.4 218L113.1 240L150.8 217.8L150.3 217.5L113.1 239.4Z" fill="url(#paint36_radial_19_7483)"/>
<path d="M70.4 171.2V209.6L108.1 187.4V149.1L70.4 171.2Z" fill="url(#paint37_linear_19_7483)"/>
<path d="M70.4 171.2V209.6L32.7 187.6V149.3L70.4 171.2Z" fill="#330A66"/>
<path d="M32.7 149.3L70.4 171.2L108.1 149.1L70.4 127.1L32.7 149.3Z" fill="#45108A"/>
<path d="M70.4 170.6L33.2 149L32.7 149.3L70.4 171.2L108.1 149.1L107.6 148.8L70.4 170.6Z" fill="url(#paint38_radial_19_7483)"/>
<path opacity="0.2" d="M54.3 189.3L47.9 185.6C45.4 184.1 43.1 184 41.4 184.9L38.1 186.9C39.8 186 42 186.2 44.5 187.6L50.9 191.3C54.9 193.6 58.3 198.5 59.6 203.3L63.6 205.6V205.3C63.6 199.4 59.4 192.3 54.3 189.3Z" fill="url(#paint39_radial_19_7483)"/>
<path d="M155.7 265V303.4L193.5 281.2V242.9L155.7 265Z" fill="url(#paint40_linear_19_7483)"/>
<path d="M155.8 265V303.4L118.1 281.4V243.1L155.8 265Z" fill="#330A66"/>
<path d="M118.1 243.1L155.8 265L193.5 242.9L155.7 220.9L118.1 243.1Z" fill="#45108A"/>
<path d="M155.8 264.4L118.6 242.8L118.1 243.1L155.8 265L193.5 242.9L192.9 242.6L155.8 264.4Z" fill="url(#paint41_radial_19_7483)"/>
<path d="M113.1 196.2V234.6L150.8 212.4V174.1L113.1 196.2Z" fill="url(#paint42_linear_19_7483)"/>
<path d="M113.1 196.2V234.6L75.4 212.6V174.3L113.1 196.2Z" fill="#330A66"/>
<path d="M75.4 174.3L113.1 196.2L150.8 174.1L113 152.1L75.4 174.3Z" fill="#45108A"/>
<path d="M113.1 195.6L75.9 174L75.4 174.3L113.1 196.2L150.8 174.1L150.3 173.8L113.1 195.6Z" fill="url(#paint43_radial_19_7483)"/>
<path d="M155.7 252.3V259.6L193.5 237.5V230.1L155.7 252.3Z" fill="url(#paint44_linear_19_7483)"/>
<path d="M155.8 252.3V259.6L118.1 237.6V230.3L155.8 252.3Z" fill="#330A66"/>
<path d="M118.1 230.3L155.8 252.3L193.5 230.1L155.7 208.1L118.1 230.3Z" fill="#45108A"/>
<path d="M121.7 227.3L155.8 247.2L189.9 227.2L155.8 207.3L121.7 227.3ZM155.8 248.3C155.7 248.3 155.6 248.3 155.5 248.2L120.4 227.8C120.2 227.7 120.2 227.5 120.2 227.4C120.2 227.2 120.3 227.1 120.4 227L155.4 206.4C155.6 206.3 155.7 206.3 155.9 206.4L191 226.9C191.2 227 191.2 227.2 191.2 227.3C191.2 227.5 191.1 227.6 191 227.7L155.9 248.3C155.9 248.2 155.8 248.3 155.8 248.3Z" fill="#43E8E1"/>
<path d="M121.7 223L155.8 242.9L189.9 222.9L155.8 203L121.7 223ZM155.8 243.9C155.7 243.9 155.6 243.9 155.5 243.8L120.4 223.4C120.2 223.3 120.2 223.1 120.2 223C120.2 222.8 120.3 222.7 120.4 222.6L155.4 202C155.6 201.9 155.7 201.9 155.9 202L191 222.5C191.2 222.6 191.2 222.8 191.2 222.9C191.2 223.1 191.1 223.2 191 223.3L155.9 243.9H155.8Z" fill="#43E8E1"/>
<path d="M121.7 218.6L155.8 238.5L189.9 218.5L155.8 198.6L121.7 218.6ZM155.8 239.5C155.7 239.5 155.6 239.5 155.5 239.4L120.4 219C120.2 218.9 120.2 218.7 120.2 218.6C120.2 218.4 120.3 218.3 120.4 218.2L155.4 197.6C155.6 197.5 155.7 197.5 155.9 197.6L191 218.1C191.2 218.2 191.2 218.4 191.2 218.5C191.2 218.7 191.1 218.8 191 218.9L155.9 239.5H155.8Z" fill="#43E8E1"/>
<path d="M121.7 214.2L155.8 234.1L189.9 214.1L155.8 194.2L121.7 214.2ZM155.8 235.1C155.7 235.1 155.6 235.1 155.5 235L120.4 214.6C120.2 214.5 120.2 214.3 120.2 214.2C120.2 214 120.3 213.9 120.4 213.8L155.4 193.2C155.6 193.1 155.7 193.1 155.9 193.2L191 213.7C191.2 213.8 191.2 214 191.2 214.1C191.2 214.3 191.1 214.4 191 214.5L155.9 235.1H155.8Z" fill="#43E8E1"/>
<g opacity="0.5">
<path d="M121.7 209.8L155.8 229.7L189.9 209.7L155.8 189.8L121.7 209.8ZM155.8 230.8C155.7 230.8 155.6 230.8 155.5 230.7L120.4 210.3C120.2 210.2 120.2 210 120.2 209.9C120.2 209.7 120.3 209.6 120.4 209.5L155.4 188.9C155.6 188.8 155.7 188.8 155.9 188.9L191 209.4C191.2 209.5 191.2 209.7 191.2 209.8C191.2 210 191.1 210.1 191 210.2L155.9 230.8C155.9 230.7 155.8 230.8 155.8 230.8Z" fill="#43E8E1"/>
</g>
<path d="M155.7 221.3V227.6L193.5 205.5V199.1L155.7 221.3Z" fill="url(#paint45_linear_19_7483)"/>
<path d="M155.8 221.3V227.6L118.1 205.6V199.3L155.8 221.3Z" fill="#330A66"/>
<path d="M118.1 199.3L155.8 221.3L193.5 199.1L155.7 177.1L118.1 199.3Z" fill="#45108A"/>
<path d="M155.8 220.7L118.6 199L118.1 199.3L155.8 221.3L193.5 199.1L192.9 198.8L155.8 220.7Z" fill="url(#paint46_radial_19_7483)"/>
<path opacity="0.2" d="M193.5 205.5V199.1L166.6 214.9L172 218.1L193.5 205.5Z" fill="url(#paint47_radial_19_7483)"/>
<path opacity="0.3" d="M155.7 221.3V259.6L193.5 237.5V199.1L155.7 221.3Z" fill="url(#paint48_linear_19_7483)"/>
<path opacity="0.1" d="M155.8 221.3V259.6L118.1 237.6V199.3L155.8 221.3Z" fill="#330A66"/>
<path d="M243.2 170.4V208.8L280.9 186.7V148.3L243.2 170.4Z" fill="url(#paint49_linear_19_7483)"/>
<path d="M243.2 170.4V208.8L205.5 186.8V148.5L243.2 170.4Z" fill="#330A66"/>
<path d="M205.5 148.5L243.2 170.4L280.9 148.3L243.2 126.3L205.5 148.5Z" fill="#45108A"/>
<path d="M243.2 169.8L206 148.2L205.5 148.5L243.2 170.4L280.9 148.3L280.4 148L243.2 169.8Z" fill="url(#paint50_radial_19_7483)"/>
<path d="M239.5 175.4L201.8 153.4L164.1 175.6V213.9L201.8 235.9L239.5 213.7V175.4Z" fill="url(#paint51_linear_19_7483)"/>
<path d="M237.1 248.9V256.2L274.9 234.1V226.7L237.1 248.9Z" fill="url(#paint52_linear_19_7483)"/>
<path d="M237.2 248.9V256.2L199.5 234.2V226.9L237.2 248.9Z" fill="url(#paint53_linear_19_7483)"/>
<path d="M199.5 226.9L237.2 248.9L274.9 226.7L237.1 204.7L199.5 226.9Z" fill="url(#paint54_linear_19_7483)"/>
<path d="M237.2 248.3L200 226.6L199.5 226.9L237.2 248.9L274.9 226.7L274.4 226.4L237.2 248.3Z" fill="url(#paint55_radial_19_7483)"/>
<path d="M237.1 238.5V245.9L274.9 223.7V216.4L237.1 238.5Z" fill="url(#paint56_linear_19_7483)"/>
<path d="M237.2 238.5V245.9L199.5 223.9V216.6L237.2 238.5Z" fill="url(#paint57_linear_19_7483)"/>
<path d="M199.5 216.6L237.2 238.5L274.9 216.4L237.1 194.4L199.5 216.6Z" fill="url(#paint58_linear_19_7483)"/>
<path d="M237.2 237.9L200 216.3L199.5 216.6L237.2 238.5L274.9 216.4L274.4 216.1L237.2 237.9Z" fill="url(#paint59_radial_19_7483)"/>
<path d="M237.1 228.2V235.5L274.9 213.4V206L237.1 228.2Z" fill="url(#paint60_linear_19_7483)"/>
<path d="M237.2 228.2V235.5L199.5 213.6V206.2L237.2 228.2Z" fill="url(#paint61_linear_19_7483)"/>
<path d="M199.5 206.2L237.2 228.2L274.9 206L237.1 184.1L199.5 206.2Z" fill="url(#paint62_linear_19_7483)"/>
<path d="M237.2 227.6L200 205.9L199.5 206.2L237.2 228.2L274.9 206L274.4 205.7L237.2 227.6Z" fill="url(#paint63_radial_19_7483)"/>
<path d="M237.1 217.9V225.2L274.9 203.1V195.7L237.1 217.9Z" fill="url(#paint64_linear_19_7483)"/>
<path d="M237.2 217.9V225.2L199.5 203.2V195.9L237.2 217.9Z" fill="url(#paint65_linear_19_7483)"/>
<path d="M199.5 195.9L237.2 217.9L274.9 195.7L237.1 173.7L199.5 195.9Z" fill="url(#paint66_linear_19_7483)"/>
<path d="M205.4 195.9L237.1 177.2L268.9 195.7L237.2 214.4L205.4 195.9Z" fill="#45108A"/>
<path d="M237.1 178.7L267.6 196.5L268.9 195.7L237.1 177.2L205.4 195.9L206.7 196.6L237.1 178.7Z" fill="url(#paint67_linear_19_7483)"/>
<path d="M237.1 178.7L267.6 196.5L268.9 195.7L237.1 177.2V178.7Z" fill="#330A66"/>
<path d="M237.2 217.3L200 195.6L199.5 195.9L237.2 217.9L274.9 195.7L274.4 195.4L237.2 217.3Z" fill="url(#paint68_radial_19_7483)"/>
<path d="M226.4 203.6L228.6 202.3C228 202 227.4 201.6 226.7 201.2L225.8 200.7L223.6 201.9C223.3 202.1 222.8 202.1 222.5 201.9L220.6 200.8C220.3 200.6 220.3 200.4 220.6 200.2L222.8 199L220.6 197.7C220.3 197.5 220.3 197.3 220.6 197.1L239.2 186.3C239.5 186.1 240 186.1 240.3 186.3L242.5 187.6L244.7 186.4C245 186.2 245.5 186.2 245.8 186.4L247.7 187.5C248 187.7 248 187.9 247.7 188.1L245.5 189.3L247.6 190.5C247.9 190.6 248.1 190.8 248.3 190.9L250.5 189.6C250.8 189.4 251.3 189.4 251.6 189.6L253.5 190.7C253.8 190.9 253.8 191.1 253.5 191.3L251.1 192.7C251.6 193.2 252 193.7 252.2 194.2C252.4 194.8 252.4 195.4 252.1 196C251.8 196.7 251.2 197.2 250.3 197.8C249.6 198.2 248.6 198.5 247.6 198.7C246.2 198.9 244.7 198.9 243.3 198.6C244.2 199.5 244.5 200.4 244.3 201.2C244.1 202.1 243.4 202.8 242.3 203.5C241.4 204 240.3 204.4 239.1 204.6C237.8 204.8 236.6 204.9 235.3 204.8C234.1 204.7 232.9 204.4 231.8 203.8L229.5 205.1C229.2 205.3 228.7 205.3 228.4 205.1L226.5 204C226.1 204 226.1 203.7 226.4 203.6ZM240.3 190.2L235.7 192.8L238.3 194.3C239.9 195.2 240.9 195.7 241.3 195.9C242.1 196.2 242.8 196.4 243.6 196.4C244.4 196.4 245.1 196.2 245.7 195.9C246.3 195.5 246.6 195.2 246.7 194.8C246.7 194.4 246.5 194 245.9 193.5C245.5 193.2 244.4 192.6 242.5 191.5L240.3 190.2ZM232.5 194.7L227.2 197.7L230.9 199.8C232.3 200.6 233.3 201.1 233.8 201.3C234.5 201.6 235.2 201.7 236 201.7C236.8 201.7 237.5 201.5 238.2 201.1C238.8 200.8 239.1 200.4 239.3 200C239.4 199.6 239.3 199.2 238.9 198.8C238.5 198.4 237.5 197.6 235.6 196.6L232.5 194.7Z" fill="#43E8E1"/>
<path d="M252.1 194.3C251.9 193.8 251.6 193.3 251 192.8L251.5 192.5C251.2 192.3 250.7 192.3 250.4 192.5L248.2 193.8C248 193.7 247.7 193.5 247.5 193.4L245.4 192.2L247.6 191C247.7 190.9 247.8 190.9 247.8 190.8C247.7 190.8 247.7 190.7 247.6 190.7L245.5 189.5L245.7 189.4C245.4 189.2 244.9 189.2 244.6 189.4L242.4 190.6L240.2 189.3C239.9 189.1 239.4 189.1 239.1 189.3L222.4 198.9L222.7 199.1L220.5 200.3C220.4 200.4 220.3 200.4 220.3 200.5L220.4 200.6L222.6 201.9L222.4 202C222.7 202.2 223.2 202.2 223.5 202L225.7 200.8L226.6 201.3C227.3 201.7 227.9 202.1 228.5 202.4L226.3 203.7C226.2 203.8 226.1 203.8 226.1 203.9L226.5 204.2C227.2 204.6 227.8 205 228.4 205.3L228.2 205.4C228.5 205.6 229 205.6 229.3 205.4L231.6 204.1C232.7 204.6 233.9 204.9 235.1 205.1C236.3 205.2 237.6 205.2 238.9 204.9C240.2 204.7 241.2 204.3 242.1 203.8C242.8 203.4 243.3 202.9 243.7 202.4C243.9 202.2 243.9 202.1 244 201.8C244 201.7 244.1 201.6 244.1 201.5C244.3 200.6 244 199.8 243.1 198.9C244.5 199.2 245.9 199.2 247.4 199C248.4 198.8 249.3 198.5 250.1 198.1C250.9 197.7 251.4 197.2 251.7 196.7C251.5 196.4 251.3 196.1 251 195.9L252.2 195.2C252.2 194.8 252.1 194.5 252.1 194.3ZM239.3 200C239.2 200.4 238.8 200.8 238.2 201.1C237.5 201.5 236.8 201.7 236 201.7C235.2 201.7 234.5 201.6 233.8 201.3C233.3 201.1 232.4 200.6 230.9 199.8L227.2 197.7L232.5 194.7L235.7 196.6C237.5 197.7 238.6 198.4 239 198.8C239.3 199.2 239.4 199.6 239.3 200ZM245.8 195.9C245.2 196.3 244.5 196.5 243.7 196.4C242.9 196.4 242.1 196.2 241.4 195.9C241 195.7 240 195.2 238.4 194.3L235.8 192.8L240.4 190.2L242.7 191.5C244.6 192.6 245.7 193.3 246.1 193.5C246.7 193.9 247 194.4 246.9 194.8C246.7 195.2 246.4 195.6 245.8 195.9Z" fill="url(#paint69_radial_19_7483)"/>
<path d="M200.5 101.7V140L238.3 117.9V79.5L200.5 101.7Z" fill="url(#paint70_linear_19_7483)"/>
<path d="M200.6 101.7V140L162.9 118.1V79.7002L200.6 101.7Z" fill="#330A66"/>
<path d="M162.9 79.7001L200.6 101.7L238.3 79.5001L200.5 57.6001L162.9 79.7001Z" fill="#45108A"/>
<path d="M200.6 101.1L163.4 79.4002L162.9 79.7002L200.6 101.7L238.3 79.5002L237.8 79.2002L200.6 101.1Z" fill="url(#paint71_radial_19_7483)"/>
<path d="M274.4 144.5C274.3 144.5 274.2 144.5 274.1 144.5L266.9 141C266.6 139.9 264.8 139 262.5 138.9L244 129.9L242.8 132.4L256.8 139.2L247.9 137.6C247.3 136.5 245.5 135.8 243.3 135.8C240.6 135.8 238.5 136.9 238.5 138.3C238.5 139.5 240.1 140.5 242.2 140.7L241.6 163C239.8 163.4 238.5 164.3 238.5 165.3C238.5 166.7 240.7 167.8 243.3 167.8C246 167.8 248.1 166.7 248.1 165.3C248.1 165.1 248 164.9 248 164.7L274.5 149.3C274.8 149.3 275.2 149.4 275.6 149.4C277.7 149.4 279.4 148.7 280.1 147.8L274.4 144.5ZM244.3 161.6L244.9 140.5C245.4 140.4 245.9 140.3 246.3 140.1L257.7 142.1C257.8 142.3 258 142.5 258.2 142.6L256.2 144.4C256.1 144.4 255.9 144.4 255.8 144.4C253.1 144.4 251 145.5 251 146.9C251 147.6 251.6 148.3 252.6 148.7L244.3 161.6ZM247.6 161.6L255.4 149.5C255.5 149.5 255.6 149.5 255.7 149.5C258.4 149.5 260.5 148.4 260.5 147C260.5 146.4 260 145.8 259.3 145.4L261.1 143.8C261.4 143.8 261.8 143.9 262.1 143.9C263.2 143.9 264.3 143.7 265.1 143.3L270.9 146.1C270.7 146.4 270.6 146.6 270.6 146.9C270.6 147.3 270.8 147.7 271.1 148L247.6 161.6Z" fill="#BCBCD6"/>
<g opacity="0.7">
<path opacity="0.7" d="M249.046 106.782L241.304 126.517L244.469 127.758L252.211 108.023L249.046 106.782Z" fill="#8770B8"/>
<path opacity="0.5" d="M249.448 107.681L242.434 125.554L243.738 126.065L250.751 108.192L249.448 107.681Z" fill="#8770B8"/>
</g>
<g opacity="0.7">
<path opacity="0.7" d="M233.7 143.6C233 143.6 232.4 143.2 232.1 142.5L225.1 123.7C225 123.3 225 122.9 225.1 122.5L231.6 105.3C231.6 105.2 231.7 105.2 231.7 105.1L241.5 87.3L244.5 88.9L234.8 106.5L228.6 123L234.9 139.8L255.3 136.2L255.9 139.5L234.1 143.3C233.9 143.6 233.8 143.6 233.7 143.6Z" fill="#8770B8"/>
<path opacity="0.5" d="M233.5 142.2C233.2 142.2 232.9 142 232.8 141.7L225.8 123C225.7 122.8 225.7 122.7 225.8 122.5L232.3 105.3V105.2L241.6 88.3L242.8 89L233.6 105.8L227.2 122.8L233.9 140.8L254.2 137.2L254.4 138.6L233.6 142.3C233.6 142.2 233.6 142.2 233.5 142.2Z" fill="#8770B8"/>
</g>
<g opacity="0.7">
<path opacity="0.7" d="M261.7 120.6C261.2 120.6 260.8 120.4 260.5 120.1L249.9 109.1L234.1 107.8L234.4 104.4L250.8 105.7C251.2 105.7 251.6 105.9 251.9 106.2L261.8 116.6L274.6 106.3L276.7 109L262.7 120.2C262.5 120.4 262.1 120.6 261.7 120.6Z" fill="#8770B8"/>
<path opacity="0.5" d="M261.5 119.2C261.3 119.2 261.1 119.1 261 119L250.2 107.7L235 106.5L235.1 105.1L250.5 106.4C250.7 106.4 250.8 106.5 250.9 106.6L261.5 117.6L274.2 107.4L275.1 108.5L262 119C261.8 119.1 261.6 119.2 261.5 119.2Z" fill="#8770B8"/>
</g>
<g opacity="0.7">
<path opacity="0.7" d="M274.3 140.6L262.3 122.7L257.2 138.5L254 137.5L260.2 118.3C260.4 117.7 260.9 117.2 261.6 117.1C262.3 117 262.9 117.3 263.2 117.8L277.2 138.6L274.3 140.6Z" fill="#8770B8"/>
<path opacity="0.5" d="M261.7 120.1L256.3 136.9L255 136.5L260.9 118.3C261 118 261.2 117.9 261.5 117.8H261.6C261.8 117.8 262 117.9 262.2 118.1L275.6 138L274.4 138.8L261.7 120.1Z" fill="#8770B8"/>
</g>
<g opacity="0.7">
<path opacity="0.7" d="M243 128.8C242.8 128.8 242.6 128.8 242.4 128.7C242 128.5 241.6 128.2 241.5 127.8L233.3 107.8L210.9 109.3C210.1 109.4 209.4 108.9 209.2 108.1C209 107.4 209.3 106.5 209.9 106.1L242.2 86.6001L244 89.5001L217.7 105.4L234.3 104.3C235 104.2 235.7 104.7 236 105.3L244 124.8L261.5 116.9L262.9 120L243.8 128.6C243.4 128.8 243.2 128.8 243 128.8Z" fill="#8770B8"/>
<path opacity="0.5" d="M242.8 127.4C242.7 127.4 242.6 127.4 242.5 127.4C242.3 127.3 242.2 127.2 242.1 127L233.6 106.4L210.5 107.9C210.1 107.9 209.9 107.7 209.8 107.4C209.7 107.1 209.8 106.8 210.1 106.6L241.5 87.6001L242.2 88.8001L216.8 104.2L217.4 106.1L234 105C234.3 105 234.6 105.2 234.7 105.4L243.1 125.8L260.6 117.9L261.2 119.2L243 127.4C243 127.4 242.9 127.4 242.8 127.4Z" fill="#8770B8"/>
</g>
<g opacity="0.7">
<path opacity="0.7" d="M243 161.1C242.7 161.1 242.4 161 242.1 160.9L209.9 141.7C209.4 141.4 209.1 140.8 209.1 140.2V107.7H212.5V139.2L243 157.4L271.9 140L242.4 128.7L243.6 125.5L276.3 138C276.9 138.2 277.3 138.8 277.4 139.4C277.5 140 277.1 140.7 276.6 141L243.8 160.8C243.6 161 243.3 161.1 243 161.1Z" fill="#8770B8"/>
<path opacity="0.5" d="M242.8 159.7C242.7 159.7 242.6 159.7 242.4 159.6L210.2 140.4C210 140.3 209.9 140 209.9 139.8V108.3H211.3V139.4L242.8 158.2L274 139.4L243.5 127.8L244 126.5L275.8 138.6C276 138.7 276.2 138.9 276.2 139.2C276.2 139.5 276.1 139.7 275.9 139.9L243.1 159.7C243 159.6 242.9 159.7 242.8 159.7Z" fill="#8770B8"/>
</g>
<g opacity="0.7">
<path opacity="0.7" d="M274.8 109.1L247 92L252.4 106.9L249.2 108L242.2 88.5C242 87.8 242.2 87.1 242.7 86.6C243.3 86.1 244 86.1 244.7 86.5L276.6 106.1L274.8 109.1Z" fill="#8770B8"/>
<path opacity="0.5" d="M244.9 89.2999L250.9 106L249.6 106.5L242.9 87.8999C242.8 87.5999 242.9 87.2999 243.1 87.0999C243.2 86.9999 243.4 86.8999 243.5 86.8999C243.6 86.8999 243.8 86.8999 243.9 86.9999L275 106.1L274.3 107.3L244.9 89.2999Z" fill="#8770B8"/>
</g>
<g opacity="0.7">
<path opacity="0.7" d="M211.4 141.7L210.1 138.5L241.3 126V88.3H244.7V127.1C244.7 127.8 244.3 128.4 243.6 128.7L211.4 141.7Z" fill="#8770B8"/>
<path opacity="0.5" d="M211.2 138.7L242.1 126.3V88.9001H243.5V126.7C243.5 127 243.3 127.2 243.1 127.4L211.7 140L211.2 138.7Z" fill="#8770B8"/>
</g>
<g opacity="0.7">
<path d="M211.911 106.459L209.464 108.819L225.292 125.23L227.739 122.87L211.911 106.459Z" fill="#8770B8"/>
<path opacity="0.5" d="M211.654 107.465L210.646 108.436L225.075 123.416L226.083 122.445L211.654 107.465Z" fill="#8770B8"/>
</g>
<g opacity="0.7">
<path opacity="0.7" d="M235.2 142.8L232.3 141L241.5 126.2C241.9 125.5 242.9 125.2 243.6 125.5L258.4 132L257 135.1L243.6 129.2L235.2 142.8Z" fill="#8770B8"/>
<path opacity="0.5" d="M233.5 140.3L242.2 126.4C242.3 126.2 242.5 126.1 242.8 126.1C242.9 126.1 243 126.1 243.1 126.2L256.9 132.3L256.3 133.6L243 127.7L234.6 141.1L233.5 140.3Z" fill="#8770B8"/>
</g>
<g opacity="0.7">
<path opacity="0.7" d="M243 161.1C242.4 161.1 241.8 160.7 241.5 160.2L232.7 143.5L210.6 141.8C209.9 141.8 209.4 141.3 209.1 140.7C208.9 140.1 209 139.4 209.4 138.9L225.4 121.9L227.9 124.2L214.3 138.6L233.8 140.1C234.4 140.1 234.9 140.5 235.2 141L243 155.8L256.2 132.7C256.6 132 257.4 131.7 258.2 131.9L274 137.1V109H250.7V105.6H275.7C276.6 105.6 277.4 106.4 277.4 107.3V139.5C277.4 140 277.1 140.6 276.7 140.9C276.3 141.2 275.7 141.3 275.2 141.1L258.5 135.6L244.4 160.1C244.1 160.7 243.6 161.1 243 161.1Z" fill="#8770B8"/>
<path opacity="0.5" d="M242.7 159.7C242.5 159.7 242.2 159.6 242.1 159.3L233 142.1L210.4 140.4C210.1 140.4 209.9 140.2 209.8 140C209.7 139.7 209.8 139.5 209.9 139.3L225.3 123L226.3 124L212 139.2L233.5 140.8C233.7 140.8 234 141 234.1 141.2L242.8 157.6L256.9 133C257 132.8 257.3 132.6 257.5 132.6C257.6 132.6 257.6 132.6 257.7 132.6L274.8 138.2V107.7H251.5V106.3H275.5C275.9 106.3 276.2 106.6 276.2 107V139.2C276.2 139.4 276.1 139.6 275.9 139.8C275.8 139.9 275.6 139.9 275.5 139.9C275.4 139.9 275.4 139.9 275.3 139.9L257.8 134.2L243.3 159.5C243.3 159.5 243 159.7 242.7 159.7Z" fill="#8770B8"/>
</g>
<path d="M215.8 140.1C215.8 142.9 213.5 145.2 210.7 145.2C207.9 145.2 205.6 142.9 205.6 140.1C205.6 137.3 207.9 135 210.7 135C213.5 135 215.8 137.3 215.8 140.1Z" fill="url(#paint72_radial_19_7483)"/>
<path d="M215.8 107.6C215.8 110.4 213.5 112.7 210.7 112.7C207.9 112.7 205.6 110.4 205.6 107.6C205.6 104.8 207.9 102.5 210.7 102.5C213.5 102.5 215.8 104.8 215.8 107.6Z" fill="url(#paint73_radial_19_7483)"/>
<path d="M248.1 127.1C248.1 129.9 245.8 132.2 243 132.2C240.2 132.2 237.9 129.9 237.9 127.1C237.9 124.3 240.2 122 243 122C245.8 122 248.1 124.3 248.1 127.1Z" fill="url(#paint74_radial_19_7483)"/>
<path d="M238.8 141.9C238.8 144.7 236.5 147 233.7 147C230.9 147 228.6 144.7 228.6 141.9C228.6 139.1 230.9 136.8 233.7 136.8C236.5 136.8 238.8 139.1 238.8 141.9Z" fill="url(#paint75_radial_19_7483)"/>
<path d="M280.8 107.6C280.8 110.4 278.5 112.7 275.7 112.7C272.9 112.7 270.6 110.4 270.6 107.6C270.6 104.8 272.9 102.5 275.7 102.5C278.5 102.5 280.8 104.8 280.8 107.6Z" fill="url(#paint76_radial_19_7483)"/>
<path d="M280.8 139.6C280.8 142.4 278.5 144.7 275.7 144.7C272.9 144.7 270.6 142.4 270.6 139.6C270.6 136.8 272.9 134.5 275.7 134.5C278.5 134.5 280.8 136.8 280.8 139.6Z" fill="url(#paint77_radial_19_7483)"/>
<path d="M248.1 159.4C248.1 162.2 245.8 164.5 243 164.5C240.2 164.5 237.9 162.2 237.9 159.4C237.9 156.6 240.2 154.3 243 154.3C245.8 154.3 248.1 156.6 248.1 159.4Z" fill="url(#paint78_radial_19_7483)"/>
<path d="M248.1 88.1C248.1 90.9 245.8 93.2 243 93.2C240.2 93.2 237.9 90.9 237.9 88.1C237.9 85.3 240.2 83 243 83C245.8 83 248.1 85.3 248.1 88.1Z" fill="url(#paint79_radial_19_7483)"/>
<path d="M255.8 107.4C255.8 110.2 253.5 112.5 250.7 112.5C247.9 112.5 245.6 110.2 245.6 107.4C245.6 104.6 247.9 102.3 250.7 102.3C253.5 102.3 255.8 104.6 255.8 107.4Z" fill="url(#paint80_radial_19_7483)"/>
<path d="M266.8 118.9C266.8 121.7 264.5 124 261.7 124C258.9 124 256.6 121.7 256.6 118.9C256.6 116.1 258.9 113.8 261.7 113.8C264.5 113.8 266.8 116.1 266.8 118.9Z" fill="url(#paint81_radial_19_7483)"/>
<path d="M260.7 137.6C260.7 140.4 258.4 142.7 255.6 142.7C252.8 142.7 250.5 140.4 250.5 137.6C250.5 134.8 252.8 132.5 255.6 132.5C258.4 132.5 260.7 134.8 260.7 137.6Z" fill="url(#paint82_radial_19_7483)"/>
<path d="M231.8 123.1C231.8 125.9 229.5 128.2 226.7 128.2C223.9 128.2 221.6 125.9 221.6 123.1C221.6 120.3 223.9 118 226.7 118C229.5 118 231.8 120.3 231.8 123.1Z" fill="url(#paint83_radial_19_7483)"/>
<path d="M238.3 105.9C238.3 108.7 236 111 233.2 111C230.4 111 228.1 108.7 228.1 105.9C228.1 103.1 230.4 100.8 233.2 100.8C236 100.8 238.3 103.1 238.3 105.9Z" fill="url(#paint84_radial_19_7483)"/>
<path d="M114.1 102.1V140.4L151.9 118.3V79.8999L114.1 102.1Z" fill="url(#paint85_linear_19_7483)"/>
<path d="M114.2 102.1V140.4L76.4 118.4V80.0999L114.2 102.1Z" fill="#330A66"/>
<path d="M76.4 80.0999L114.2 102.1L151.9 79.8999L114.1 57.8999L76.4 80.0999Z" fill="#45108A"/>
<path d="M114.2 101.5L77 79.7999L76.4 80.0999L114.2 102.1L151.9 79.8998L151.3 79.5999L114.2 101.5Z" fill="url(#paint86_radial_19_7483)"/>
<path d="M155.7 127.1V165.4L193.5 143.3V105L155.7 127.1Z" fill="url(#paint87_linear_19_7483)"/>
<path d="M155.8 127.1V165.4L118.1 143.5V105.1L155.8 127.1Z" fill="#330A66"/>
<path d="M118.1 105.1L155.8 127.1L193.5 105L155.7 83L118.1 105.1Z" fill="#45108A"/>
<path d="M155.8 126.5L118.6 104.8L118.1 105.1L155.8 127.1L193.5 105L192.9 104.7L155.8 126.5Z" fill="url(#paint88_radial_19_7483)"/>
<path d="M199.5 152.1V190.5L237.2 168.3V130L199.5 152.1Z" fill="url(#paint89_linear_19_7483)"/>
<path d="M199.5 152.1V190.5L161.8 168.5V130.2L199.5 152.1Z" fill="#330A66"/>
<path d="M161.8 130.2L199.5 152.1L237.2 130L199.5 108L161.8 130.2Z" fill="#45108A"/>
<path d="M199.5 151.5L162.3 129.9L161.8 130.2L199.5 152.1L237.2 130L236.7 129.7L199.5 151.5Z" fill="url(#paint90_radial_19_7483)"/>
<path opacity="0.2" d="M199.9 151.9L199.5 152.1V155.4L226.3 171L199.5 186.7V190.5L232.6 171L199.9 151.9Z" fill="url(#paint91_radial_19_7483)"/>
<path opacity="0.2" d="M199.5 181.1L216.7 171.2C217 171 217 170.8 216.7 170.6L214.5 169.3L216.7 168.1C217 167.9 217 167.7 216.7 167.5L214.8 166.4C214.5 166.2 214 166.2 213.7 166.4L211.5 167.6L210.6 167.1C209.9 166.7 209.3 166.3 208.7 166L210.9 164.7C211.2 164.5 211.2 164.3 210.9 164.1L209 163C208.7 162.8 208.2 162.8 207.9 163L205.6 164.3C204.5 163.8 203.3 163.5 202.1 163.3C201.3 163.2 200.5 163.2 199.7 163.3V166.8C200.2 166.6 200.7 166.5 201.3 166.5C202.1 166.5 202.8 166.6 203.5 166.9C204 167.1 204.9 167.6 206.4 168.4L210.1 170.5L204.8 173.5L201.6 171.6C200.8 171.2 200.2 170.8 199.7 170.5V174.3L201.5 175.4L199.7 176.5V181.1H199.5Z" fill="url(#paint92_radial_19_7483)"/>
<path d="M70.4 127.5V165.8L108.1 143.7V105.3L70.4 127.5Z" fill="url(#paint93_linear_19_7483)"/>
<path d="M70.4 127.5V165.8L32.7 143.9V105.5L70.4 127.5Z" fill="#330A66"/>
<path d="M32.7 105.5L70.4 127.5L108.1 105.3L70.4 83.3999L32.7 105.5Z" fill="#45108A"/>
<path d="M70.4 126.9L33.2 105.2L32.7 105.5L70.4 127.5L108.1 105.3L107.6 105L70.4 126.9Z" fill="url(#paint94_radial_19_7483)"/>
<path d="M113.1 152.5V190.9L150.8 168.7V130.4L113.1 152.5Z" fill="url(#paint95_linear_19_7483)"/>
<path d="M113.1 152.5V190.9L75.4 168.9V130.5L113.1 152.5Z" fill="#330A66"/>
<path d="M75.4 130.5L113.1 152.5L150.8 130.4L113 108.4L75.4 130.5Z" fill="#45108A"/>
<path d="M113.1 172.3V190.7L150.8 168.8V150.3L113.1 172.3Z" fill="url(#paint96_linear_19_7483)"/>
<path d="M115.4 186.7V173.6L148.4 154.3V167.4L115.4 186.7ZM117.2 174.6V183.6L146.7 166.4V157.4L117.2 174.6Z" fill="url(#paint97_linear_19_7483)"/>
<path d="M113.1 172.3V190.7L75.4 168.7V150.3L113.1 172.3Z" fill="url(#paint98_linear_19_7483)"/>
<path d="M78.6 166.9V155.8L109.9 174.1V185.2L78.6 166.9Z" fill="#25054D"/>
<path d="M110.8 186.7L77.6 167.4V154.3L110.8 173.6V186.7ZM79.4 166.4L109 183.7V174.7L79.4 157.5V166.4Z" fill="url(#paint99_linear_19_7483)"/>
<path d="M105.7 175.2L106.9 175.9V174.5L105.7 173.8V175.2Z" fill="#2AF6FF"/>
<path d="M103.4 173.9L104.6 174.6V173.2L103.4 172.5V173.9Z" fill="#2AF6FF"/>
<path d="M101.1 172.6L102.3 173.3V171.9L101.1 171.2V172.6Z" fill="#4B61B8"/>
<path d="M98.8 171.3L100 172V170.6L98.8 169.9V171.3Z" fill="#25054D"/>
<path d="M96.5 169.9L97.7 170.6V169.2L96.5 168.5V169.9Z" fill="#25054D"/>
<path d="M94.2 168.6L95.5 169.3V167.9L94.2 167.2V168.6Z" fill="#4B61B8"/>
<path d="M92 167.3L93.2 168V166.6L92 165.9V167.3Z" fill="#4B61B8"/>
<path d="M89.7 166L90.9 166.7V165.3L89.7 164.6V166Z" fill="#4B61B8"/>
<path d="M87.4 164.7L88.6 165.4V164L87.4 163.3V164.7Z" fill="#25054D"/>
<path d="M85.1 163.4L86.3 164.1V162.7L85.1 162V163.4Z" fill="#4B61B8"/>
<path d="M82.8 162L84 162.7V161.3L82.8 160.6V162Z" fill="#2AF6FF"/>
<path d="M80.5 160.7L81.8 161.4V160L80.5 159.3V160.7Z" fill="#2AF6FF"/>
<path d="M105.7 177.7L106.9 178.4V177L105.7 176.3V177.7Z" fill="#4B61B8"/>
<path d="M103.4 176.4L104.6 177.1V175.7L103.4 175V176.4Z" fill="#2AF6FF"/>
<path d="M101.1 175.1L102.3 175.8V174.4L101.1 173.7V175.1Z" fill="#2AF6FF"/>
<path d="M98.8 173.7L100 174.4V173L98.8 172.3V173.7Z" fill="#25054D"/>
<path d="M96.5 172.4L97.7 173.1V171.7L96.5 171V172.4Z" fill="#2AF6FF"/>
<path d="M94.2 171.1L95.5 171.8V170.4L94.2 169.7V171.1Z" fill="#2AF6FF"/>
<path d="M92 169.8L93.2 170.5V169.1L92 168.4V169.8Z" fill="#2AF6FF"/>
<path d="M89.7 168.5L90.9 169.2V167.8L89.7 167.1V168.5Z" fill="#4B61B8"/>
<path d="M87.4 167.1L88.6 167.9V166.5L87.4 165.8V167.1Z" fill="#4B61B8"/>
<path d="M85.1 165.8L86.3 166.5V165.1L85.1 164.4V165.8Z" fill="#4B61B8"/>
<path d="M82.8 164.5L84 165.2V163.8L82.8 163.1V164.5Z" fill="#4B61B8"/>
<path d="M80.5 163.2L81.8 163.9V162.5L80.5 161.8V163.2Z" fill="#4B61B8"/>
<path d="M105.7 180.2L106.9 180.9V179.5L105.7 178.8V180.2Z" fill="#2AF6FF"/>
<path d="M103.4 178.8L104.6 179.5V178.1L103.4 177.4V178.8Z" fill="#4B61B8"/>
<path d="M101.1 177.5L102.3 178.2V176.8L101.1 176.1V177.5Z" fill="#4B61B8"/>
<path d="M98.8 176.2L100 176.9V175.5L98.8 174.8V176.2Z" fill="#4B61B8"/>
<path d="M96.5 174.9L97.7 175.6V174.2L96.5 173.5V174.9Z" fill="#4B61B8"/>
<path d="M94.2 173.6L95.5 174.3V172.9L94.2 172.2V173.6Z" fill="#4B61B8"/>
<path d="M92 172.2L93.2 172.9V171.6L92 170.8V172.2Z" fill="#25054D"/>
<path d="M89.7 170.9L90.9 171.6V170.2L89.7 169.5V170.9Z" fill="#2AF6FF"/>
<path d="M87.4 169.6L88.6 170.3V168.9L87.4 168.2V169.6Z" fill="#4B61B8"/>
<path d="M85.1 168.3L86.3 169V167.6L85.1 166.9V168.3Z" fill="#4B61B8"/>
<path d="M82.8 167L84 167.7V166.3L82.8 165.6V167Z" fill="#2AF6FF"/>
<path d="M80.5 165.7L81.8 166.4V165L80.5 164.3V165.7Z" fill="#2AF6FF"/>
<path d="M120.3 175.2L119.1 175.9V174.5L120.3 173.8V175.2Z" fill="#2AF6FF"/>
<path d="M122.6 173.9L121.3 174.6V173.2L122.6 172.5V173.9Z" fill="#25054D"/>
<path d="M124.8 172.6L123.6 173.3V171.9L124.8 171.2V172.6Z" fill="#4B61B8"/>
<path d="M127.1 171.3L125.9 172V170.6L127.1 169.9V171.3Z" fill="#25054D"/>
<path d="M129.4 169.9L128.2 170.6V169.2L129.4 168.5V169.9Z" fill="#25054D"/>
<path d="M131.7 168.6L130.5 169.3V167.9L131.7 167.2V168.6Z" fill="#4B61B8"/>
<path d="M134 167.3L132.8 168V166.6L134 165.9V167.3Z" fill="#4B61B8"/>
<path d="M136.3 166L135 166.7V165.3L136.3 164.6V166Z" fill="#4B61B8"/>
<path d="M138.5 164.7L137.3 165.4V164L138.5 163.3V164.7Z" fill="#25054D"/>
<path d="M140.8 163.4L139.6 164.1V162.7L140.8 162V163.4Z" fill="#25054D"/>
<path d="M143.1 162L141.9 162.7V161.3L143.1 160.6V162Z" fill="#2AF6FF"/>
<path d="M145.4 160.7L144.2 161.4V160L145.4 159.3V160.7Z" fill="#2AF6FF"/>
<path d="M120.3 177.7L119.1 178.4V177L120.3 176.3V177.7Z" fill="#4B61B8"/>
<path d="M122.6 176.4L121.3 177.1V175.7L122.6 175V176.4Z" fill="#25054D"/>
<path d="M124.8 175.1L123.6 175.8V174.4L124.8 173.7V175.1Z" fill="#2AF6FF"/>
<path d="M127.1 173.7L125.9 174.4V173L127.1 172.3V173.7Z" fill="#25054D"/>
<path d="M129.4 172.4L128.2 173.1V171.7L129.4 171V172.4Z" fill="#2AF6FF"/>
<path d="M131.7 171.1L130.5 171.8V170.4L131.7 169.7V171.1Z" fill="#2AF6FF"/>
<path d="M134 169.8L132.8 170.5V169.1L134 168.4V169.8Z" fill="#2AF6FF"/>
<path d="M136.3 168.5L135 169.2V167.8L136.3 167.1V168.5Z" fill="#4B61B8"/>
<path d="M138.5 167.1L137.3 167.9V166.5L138.5 165.8V167.1Z" fill="#4B61B8"/>
<path d="M140.8 165.8L139.6 166.5V165.1L140.8 164.4V165.8Z" fill="#4B61B8"/>
<path d="M143.1 164.5L141.9 165.2V163.8L143.1 163.1V164.5Z" fill="#4B61B8"/>
<path d="M145.4 163.2L144.2 163.9V162.5L145.4 161.8V163.2Z" fill="#4B61B8"/>
<path d="M120.3 180.2L119.1 180.9V179.5L120.3 178.8V180.2Z" fill="#2AF6FF"/>
<path d="M122.6 178.8L121.3 179.5V178.1L122.6 177.4V178.8Z" fill="#4B61B8"/>
<path d="M124.8 177.5L123.6 178.2V176.8L124.8 176.1V177.5Z" fill="#4B61B8"/>
<path d="M127.1 176.2L125.9 176.9V175.5L127.1 174.8V176.2Z" fill="#4B61B8"/>
<path d="M129.4 174.9L128.2 175.6V174.2L129.4 173.5V174.9Z" fill="#4B61B8"/>
<path d="M131.7 173.6L130.5 174.3V172.9L131.7 172.2V173.6Z" fill="#4B61B8"/>
<path d="M134 172.2L132.8 172.9V171.6L134 170.8V172.2Z" fill="#25054D"/>
<path d="M136.3 170.9L135 171.6V170.2L136.3 169.5V170.9Z" fill="#2AF6FF"/>
<path d="M138.5 169.6L137.3 170.3V168.9L138.5 168.2V169.6Z" fill="#4B61B8"/>
<path d="M140.8 168.3L139.6 169V167.6L140.8 166.9V168.3Z" fill="#4B61B8"/>
<path d="M143.1 167L141.9 167.7V166.3L143.1 165.6V167Z" fill="#4B61B8"/>
<path d="M145.4 165.7L144.2 166.4V165L145.4 164.3V165.7Z" fill="#2AF6FF"/>
<path d="M75.4 150.3L113.1 172.3L150.8 150.3L112.9 128.3L75.4 150.3Z" fill="url(#paint100_linear_19_7483)"/>
<path d="M113.1 165.2V171.4L148.1 151V144.8L113.1 165.2Z" fill="url(#paint101_linear_19_7483)"/>
<path d="M113.1 165.2V171.4L78 150.9V144.8L113.1 165.2Z" fill="url(#paint102_linear_19_7483)"/>
<path d="M113.1 152.5V171L150.8 149V130.6L113.1 152.5Z" fill="url(#paint103_linear_19_7483)"/>
<path d="M113.1 152.5V171L75.4 149V130.5L113.1 152.5Z" fill="url(#paint104_linear_19_7483)"/>
<path d="M78.6 147.1V136.1L109.9 154.3V165.4L78.6 147.1Z" fill="#25054D"/>
<path d="M110.8 167L77.6 147.7V134.6L110.8 153.9V167ZM79.4 146.6L109 163.9V154.9L79.4 137.7V146.6Z" fill="url(#paint105_linear_19_7483)"/>
<path d="M105.7 155.5L106.9 156.2V154.8L105.7 154.1V155.5Z" fill="#2AF6FF"/>
<path d="M103.4 154.1L104.6 154.8V153.5L103.4 152.8V154.1Z" fill="#2AF6FF"/>
<path d="M101.1 152.8L102.3 153.5V152.1L101.1 151.4V152.8Z" fill="#4B61B8"/>
<path d="M98.8 151.5L100 152.2V150.8L98.8 150.1V151.5Z" fill="#25054D"/>
<path d="M96.5 150.2L97.7 150.9V149.5L96.5 148.8V150.2Z" fill="#25054D"/>
<path d="M94.2 148.9L95.5 149.6V148.2L94.2 147.5V148.9Z" fill="#4B61B8"/>
<path d="M92 147.6L93.2 148.3V146.9L92 146.2V147.6Z" fill="#4B61B8"/>
<path d="M89.7 146.2L90.9 146.9V145.5L89.7 144.8V146.2Z" fill="#4B61B8"/>
<path d="M87.4 144.9L88.6 145.6V144.2L87.4 143.5V144.9Z" fill="#25054D"/>
<path d="M85.1 143.6L86.3 144.3V142.9L85.1 142.2V143.6Z" fill="#4B61B8"/>
<path d="M82.8 142.3L84 143V141.6L82.8 140.9V142.3Z" fill="#2AF6FF"/>
<path d="M80.5 141L81.8 141.7V140.3L80.5 139.6V141Z" fill="#2AF6FF"/>
<path d="M105.7 157.9L106.9 158.6V157.2L105.7 156.5V157.9Z" fill="#4B61B8"/>
<path d="M103.4 156.6L104.6 157.3V155.9L103.4 155.2V156.6Z" fill="#2AF6FF"/>
<path d="M101.1 155.3L102.3 156V154.6L101.1 153.9V155.3Z" fill="#2AF6FF"/>
<path d="M98.8 154L100 154.7V153.3L98.8 152.6V154Z" fill="#25054D"/>
<path d="M96.5 152.7L97.7 153.4V152L96.5 151.3V152.7Z" fill="#2AF6FF"/>
<path d="M94.2 151.4L95.5 152.1V150.7L94.2 150V151.4Z" fill="#2AF6FF"/>
<path d="M92 150L93.2 150.7V149.3L92 148.6V150Z" fill="#2AF6FF"/>
<path d="M89.7 148.7L90.9 149.4V148L89.7 147.3V148.7Z" fill="#4B61B8"/>
<path d="M87.4 147.4L88.6 148.1V146.7L87.4 146V147.4Z" fill="#4B61B8"/>
<path d="M85.1 146.1L86.3 146.8V145.4L85.1 144.7V146.1Z" fill="#4B61B8"/>
<path d="M82.8 144.8L84 145.5V144.1L82.8 143.4V144.8Z" fill="#4B61B8"/>
<path d="M80.5 143.4L81.8 144.1V142.8L80.5 142.1V143.4Z" fill="#4B61B8"/>
<path d="M105.7 160.4L106.9 161.1V159.7L105.7 159V160.4Z" fill="#2AF6FF"/>
<path d="M103.4 159.1L104.6 159.8V158.4L103.4 157.7V159.1Z" fill="#4B61B8"/>
<path d="M101.1 157.8L102.3 158.5V157.1L101.1 156.4V157.8Z" fill="#4B61B8"/>
<path d="M98.8 156.4L100 157.1V155.8L98.8 155.1V156.4Z" fill="#4B61B8"/>
<path d="M96.5 155.1L97.7 155.8V154.4L96.5 153.7V155.1Z" fill="#4B61B8"/>
<path d="M94.2 153.8L95.5 154.5V153.1L94.2 152.4V153.8Z" fill="#4B61B8"/>
<path d="M92 152.5L93.2 153.2V151.8L92 151.1V152.5Z" fill="#25054D"/>
<path d="M89.7 151.2L90.9 151.9V150.5L89.7 149.8V151.2Z" fill="#2AF6FF"/>
<path d="M87.4 149.9L88.6 150.6V149.2L87.4 148.5V149.9Z" fill="#4B61B8"/>
<path d="M85.1 148.5L86.3 149.2V147.8L85.1 147.1V148.5Z" fill="#4B61B8"/>
<path d="M82.8 147.2L84 147.9V146.5L82.8 145.8V147.2Z" fill="#2AF6FF"/>
<path d="M80.5 145.9L81.8 146.6V145.2L80.5 144.5V145.9Z" fill="#2AF6FF"/>
<path d="M113.1 151.9L75.9 130.2L75.4 130.5L113.1 152.5L150.8 130.6L150.2 130.3L113.1 151.9Z" fill="url(#paint106_radial_19_7483)"/>
<path d="M85.2 130.8L112.9 147L140.9 130.8L113.2 114.7L85.2 130.8Z" fill="url(#paint107_linear_19_7483)"/>
<path d="M99.2 138.9L113 147L126.9 138.9L113.1 130.9L99.2 138.9Z" fill="url(#paint108_radial_19_7483)"/>
<path d="M140.9 72.6001L113 56.3L85.2 72.5V130.8L112.9 147L140.9 130.8V72.6001Z" fill="url(#paint109_linear_19_7483)"/>
<path d="M155.7 177.5V215.9L193.5 193.7V155.4L155.7 177.5Z" fill="url(#paint110_linear_19_7483)"/>
<path d="M155.8 177.5V215.9L118.1 193.9V155.6L155.8 177.5Z" fill="#330A66"/>
<path d="M118.1 155.6L155.8 177.5L193.5 155.4L155.7 133.4L118.1 155.6Z" fill="#45108A"/>
<path d="M155.8 176.9L118.6 155.3L118.1 155.6L155.8 177.5L193.5 155.4L192.9 155.1L155.8 176.9Z" fill="url(#paint111_radial_19_7483)"/>
<path d="M49.2 213.6L55.4 217.3L59.4 214.9L53.2 211.3L49.2 213.6Z" fill="#E2953F"/>
<path d="M29.7 202.4L35.9 206L39.9 203.7L33.7 200L29.7 202.4Z" fill="#E2953F"/>
<path d="M55.3 216.9L67.9 212.6L58.9 207.2L50 213.8L55.3 216.9Z" fill="url(#paint112_linear_19_7483)"/>
<path d="M35.9 205.5L48.5 201.2L39.5 195.8L30.5 202.4L35.9 205.5Z" fill="url(#paint113_linear_19_7483)"/>
<path d="M49.4 191.8L43 188.1C37.9 185.2 33.8 187.5 33.8 193.4V200.5L39.2 203.6V198.3C39.2 195 41.6 193.6 44.5 195.3L48.0999 197.4C50.9999 199.1 53.4 203.1 53.4 206.5V211.8L58.8 214.9V207.8C58.7 201.9 54.5 194.8 49.4 191.8Z" fill="url(#paint114_linear_19_7483)"/>
<path d="M46.7 193.6L40.3 189.9C37.4 188.2 34.9 188.3 33.2 189.6L33.9 193.6V200.5L35.2 201.2L35.9 205.6L36.5 205.3V200.1C36.5 197.6 37.7999 196.3 39.5999 196.4C40.3999 194.6 42.3 194.1 44.5 195.4L48.0999 197.5C50.9999 199.2 53.4 203.2 53.4 206.6V211.9L54.8 212.7L55.4 217L56 216.7V209.7C55.9 203.7 51.8 196.5 46.7 193.6Z" fill="url(#paint115_radial_19_7483)"/>
<path d="M46.0999 193.8L39.7 190.1C34.6 187.2 30.5 189.5 30.5 195.4V202.5L35.9 205.6V200.3C35.9 197 38.3 195.6 41.2 197.3L44.8 199.4C47.7 201.1 50.0999 205.1 50.0999 208.5V213.8L55.5 216.9V209.8C55.3 203.9 51.1999 196.8 46.0999 193.8Z" fill="url(#paint116_linear_19_7483)"/>
<path d="M253.6 191V144H220.3V197.3C220.3 197.4 220.3 197.4 220.3 197.5V200.7H220.4C220.4 200.8 220.5 200.8 220.6 200.9L222.5 202C222.8 202.2 223.3 202.2 223.6 202L225.8 200.8L226.7 201.3C227.4 201.7 228 202.1 228.6 202.4L226.4 203.7C226.1 203.9 226.1 204.1 226.4 204.3L228.3 205.4C228.6 205.6 229.1 205.6 229.4 205.4L231.7 204.1C232.8 204.6 234 204.9 235.2 205.1C236.4 205.2 237.7 205.2 239 204.9C240.3 204.7 241.3 204.3 242.2 203.8C243.3 203.1 244 202.4 244.2 201.5C244.4 200.6 244.1 199.8 243.2 198.9C244.6 199.2 246 199.2 247.5 199C248.5 198.8 249.4 198.5 250.2 198.1C251.1 197.6 251.7 197 252 196.3C252.3 195.7 252.3 195.1 252.1 194.5C251.9 194 251.6 193.5 251 193L253.4 191.6C253.6 191.3 253.7 191.1 253.6 191Z" fill="url(#paint117_linear_19_7483)"/>
<defs>
<linearGradient id="paint0_linear_19_7483" x1="197.32" y1="93.2447" x2="205.338" y2="111.235" gradientUnits="userSpaceOnUse">
<stop offset="0.0353535" stop-color="#FFA98C"/>
<stop offset="0.3169" stop-color="#FFB892"/>
<stop offset="0.8601" stop-color="#FEE1A3"/>
<stop offset="1" stop-color="#FEECA8"/>
</linearGradient>
<linearGradient id="paint1_linear_19_7483" x1="117.596" y1="40.1652" x2="194.631" y2="133.98" gradientUnits="userSpaceOnUse">
<stop offset="0.0353535" stop-color="#FFA98C"/>
<stop offset="0.3169" stop-color="#FFB892"/>
<stop offset="0.8601" stop-color="#FEE1A3"/>
<stop offset="1" stop-color="#FEECA8"/>
</linearGradient>
<linearGradient id="paint2_linear_19_7483" x1="195.376" y1="-9.62225" x2="171.376" y2="97.3779" gradientUnits="userSpaceOnUse">
<stop offset="0.0353535" stop-color="#FFA98C"/>
<stop offset="0.3169" stop-color="#FFB892"/>
<stop offset="0.8601" stop-color="#FEE1A3"/>
<stop offset="1" stop-color="#FEECA8"/>
</linearGradient>
<radialGradient id="paint3_radial_19_7483" cx="0" cy="0" r="1" gradientUnits="userSpaceOnUse" gradientTransform="translate(176.557 85.1094) scale(27.8148 27.8148)">
<stop offset="0.0959596" stop-color="#FFE4A7"/>
<stop offset="0.4205" stop-color="#F4BE4C"/>
<stop offset="0.6717" stop-color="#ECA30A"/>
<stop offset="1"/>
</radialGradient>
<linearGradient id="paint4_linear_19_7483" x1="197.32" y1="82.9112" x2="205.338" y2="100.902" gradientUnits="userSpaceOnUse">
<stop offset="0.0353535" stop-color="#FFA98C"/>
<stop offset="0.3169" stop-color="#FFB892"/>
<stop offset="0.8601" stop-color="#FEE1A3"/>
<stop offset="1" stop-color="#FEECA8"/>
</linearGradient>
<linearGradient id="paint5_linear_19_7483" x1="117.596" y1="29.832" x2="194.63" y2="123.647" gradientUnits="userSpaceOnUse">
<stop offset="0.0353535" stop-color="#FFA98C"/>
<stop offset="0.3169" stop-color="#FFB892"/>
<stop offset="0.8601" stop-color="#FEE1A3"/>
<stop offset="1" stop-color="#FEECA8"/>
</linearGradient>
<linearGradient id="paint6_linear_19_7483" x1="195.376" y1="-19.9554" x2="171.376" y2="87.0444" gradientUnits="userSpaceOnUse">
<stop offset="0.0353535" stop-color="#FFA98C"/>
<stop offset="0.3169" stop-color="#FFB892"/>
<stop offset="0.8601" stop-color="#FEE1A3"/>
<stop offset="1" stop-color="#FEECA8"/>
</linearGradient>
<radialGradient id="paint7_radial_19_7483" cx="0" cy="0" r="1" gradientUnits="userSpaceOnUse" gradientTransform="translate(176.557 74.7761) scale(27.8148 27.8148)">
<stop offset="0.0959596" stop-color="#FFE4A7"/>
<stop offset="0.4205" stop-color="#F4BE4C"/>
<stop offset="0.6717" stop-color="#ECA30A"/>
<stop offset="1"/>
</radialGradient>
<linearGradient id="paint8_linear_19_7483" x1="197.32" y1="72.578" x2="205.338" y2="90.5683" gradientUnits="userSpaceOnUse">
<stop offset="0.0353535" stop-color="#FFA98C"/>
<stop offset="0.3169" stop-color="#FFB892"/>
<stop offset="0.8601" stop-color="#FEE1A3"/>
<stop offset="1" stop-color="#FEECA8"/>
</linearGradient>
<linearGradient id="paint9_linear_19_7483" x1="117.596" y1="19.4986" x2="194.63" y2="113.314" gradientUnits="userSpaceOnUse">
<stop offset="0.0353535" stop-color="#FFA98C"/>
<stop offset="0.3169" stop-color="#FFB892"/>
<stop offset="0.8601" stop-color="#FEE1A3"/>
<stop offset="1" stop-color="#FEECA8"/>
</linearGradient>
<linearGradient id="paint10_linear_19_7483" x1="195.376" y1="-30.2886" x2="171.376" y2="76.7112" gradientUnits="userSpaceOnUse">
<stop offset="0.0353535" stop-color="#FFA98C"/>
<stop offset="0.3169" stop-color="#FFB892"/>
<stop offset="0.8601" stop-color="#FEE1A3"/>
<stop offset="1" stop-color="#FEECA8"/>
</linearGradient>
<radialGradient id="paint11_radial_19_7483" cx="0" cy="0" r="1" gradientUnits="userSpaceOnUse" gradientTransform="translate(176.557 64.4429) scale(27.8148 27.8148)">
<stop offset="0.0959596" stop-color="#FFE4A7"/>
<stop offset="0.4205" stop-color="#F4BE4C"/>
<stop offset="0.6717" stop-color="#ECA30A"/>
<stop offset="1"/>
</radialGradient>
<linearGradient id="paint12_linear_19_7483" x1="197.32" y1="62.2447" x2="205.338" y2="80.235" gradientUnits="userSpaceOnUse">
<stop offset="0.0353535" stop-color="#FFA98C"/>
<stop offset="0.3169" stop-color="#FFB892"/>
<stop offset="0.8601" stop-color="#FEE1A3"/>
<stop offset="1" stop-color="#FEECA8"/>
</linearGradient>
<linearGradient id="paint13_linear_19_7483" x1="117.596" y1="9.16521" x2="194.631" y2="102.98" gradientUnits="userSpaceOnUse">
<stop offset="0.0353535" stop-color="#FFA98C"/>
<stop offset="0.3169" stop-color="#FFB892"/>
<stop offset="0.8601" stop-color="#FEE1A3"/>
<stop offset="1" stop-color="#FEECA8"/>
</linearGradient>
<linearGradient id="paint14_linear_19_7483" x1="201.239" y1="-66.762" x2="177.239" y2="40.2381" gradientUnits="userSpaceOnUse">
<stop offset="0.0353535" stop-color="#FFA98C"/>
<stop offset="0.3169" stop-color="#FFB892"/>
<stop offset="0.8601" stop-color="#FEE1A3"/>
<stop offset="1" stop-color="#FEECA8"/>
</linearGradient>
<linearGradient id="paint15_linear_19_7483" x1="169.968" y1="34.014" x2="192.301" y2="65.4308" gradientUnits="userSpaceOnUse">
<stop stop-color="#25054D"/>
<stop offset="1" stop-color="#45108A"/>
</linearGradient>
<radialGradient id="paint16_radial_19_7483" cx="0" cy="0" r="1" gradientUnits="userSpaceOnUse" gradientTransform="translate(176.557 54.1094) scale(27.8148 27.8148)">
<stop offset="0.0959596" stop-color="#FFE4A7"/>
<stop offset="0.4205" stop-color="#F4BE4C"/>
<stop offset="0.6717" stop-color="#ECA30A"/>
<stop offset="1"/>
</radialGradient>
<radialGradient id="paint17_radial_19_7483" cx="0" cy="0" r="1" gradientUnits="userSpaceOnUse" gradientTransform="translate(178.658 53.1818) scale(17.4397 17.4397)">
<stop stop-color="white"/>
<stop offset="1"/>
</radialGradient>
<linearGradient id="paint18_linear_19_7483" x1="180.069" y1="45.7769" x2="180.069" y2="1.3601" gradientUnits="userSpaceOnUse">
<stop stop-color="#1BB0D4"/>
<stop offset="0.0544733" stop-color="#189DBD"/>
<stop offset="0.1831" stop-color="#12738B"/>
<stop offset="0.3149" stop-color="#0C5060"/>
<stop offset="0.4475" stop-color="#08333E"/>
<stop offset="0.5813" stop-color="#041D23" stop-opacity="0.2"/>
<stop offset="0.7168" stop-color="#020D0F" stop-opacity="0.25"/>
<stop offset="0.8549" stop-color="#000304" stop-opacity="0"/>
<stop offset="1" stop-opacity="0"/>
<stop offset="1" stop-opacity="0"/>
</linearGradient>
<linearGradient id="paint19_linear_19_7483" x1="226.022" y1="211.302" x2="253.631" y2="273.256" gradientUnits="userSpaceOnUse">
<stop stop-color="#25054D"/>
<stop offset="1" stop-color="#45108A"/>
</linearGradient>
<radialGradient id="paint20_radial_19_7483" cx="0" cy="0" r="1" gradientUnits="userSpaceOnUse" gradientTransform="translate(200.563 177.131) scale(38.6598 38.6598)">
<stop offset="0.0959596" stop-color="#45108A"/>
<stop offset="0.6717" stop-color="#25054D"/>
<stop offset="1"/>
</radialGradient>
<linearGradient id="paint21_linear_19_7483" x1="181.215" y1="236.712" x2="208.825" y2="298.665" gradientUnits="userSpaceOnUse">
<stop stop-color="#25054D"/>
<stop offset="1" stop-color="#45108A"/>
</linearGradient>
<radialGradient id="paint22_radial_19_7483" cx="0" cy="0" r="1" gradientUnits="userSpaceOnUse" gradientTransform="translate(155.756 202.541) scale(38.6598 38.6598)">
<stop offset="0.0959596" stop-color="#45108A"/>
<stop offset="0.6717" stop-color="#25054D"/>
<stop offset="1"/>
</radialGradient>
<linearGradient id="paint23_linear_19_7483" x1="167.564" y1="52.9361" x2="137.898" y2="90.9361" gradientUnits="userSpaceOnUse">
<stop stop-color="#972A74"/>
<stop offset="0.0412825" stop-color="#8A266A"/>
<stop offset="0.1941" stop-color="#601B4A"/>
<stop offset="0.35" stop-color="#3D112F"/>
<stop offset="0.5074" stop-color="#220A1B"/>
<stop offset="0.6667" stop-color="#0F040C"/>
<stop offset="0.8293" stop-color="#040103"/>
<stop offset="1"/>
</linearGradient>
<linearGradient id="paint24_linear_19_7483" x1="268.694" y1="237.139" x2="296.304" y2="299.093" gradientUnits="userSpaceOnUse">
<stop stop-color="#25054D"/>
<stop offset="1" stop-color="#45108A"/>
</linearGradient>
<linearGradient id="paint25_linear_19_7483" x1="224.955" y1="262.549" x2="252.564" y2="324.502" gradientUnits="userSpaceOnUse">
<stop stop-color="#25054D"/>
<stop offset="1" stop-color="#45108A"/>
</linearGradient>
<linearGradient id="paint26_linear_19_7483" x1="48.983" y1="224.398" x2="80.8164" y2="206.731" gradientUnits="userSpaceOnUse">
<stop stop-color="#972A74"/>
<stop offset="0.0412825" stop-color="#8A266A"/>
<stop offset="0.1941" stop-color="#601B4A"/>
<stop offset="0.35" stop-color="#3D112F"/>
<stop offset="0.5074" stop-color="#220A1B"/>
<stop offset="0.6667" stop-color="#0F040C"/>
<stop offset="0.8293" stop-color="#040103"/>
<stop offset="1"/>
</linearGradient>
<linearGradient id="paint27_linear_19_7483" x1="69.4347" y1="252.471" x2="95.1726" y2="310.224" gradientUnits="userSpaceOnUse">
<stop offset="0.0353535" stop-color="#FFA98C"/>
<stop offset="0.3169" stop-color="#FFB892"/>
<stop offset="0.8601" stop-color="#FEE1A3"/>
<stop offset="1" stop-color="#FEECA8"/>
</linearGradient>
<linearGradient id="paint28_linear_19_7483" x1="-43.6624" y1="135.19" x2="94.3617" y2="303.279" gradientUnits="userSpaceOnUse">
<stop offset="0.0353535" stop-color="#FFA98C"/>
<stop offset="0.3169" stop-color="#FFB892"/>
<stop offset="0.8601" stop-color="#FEE1A3"/>
<stop offset="1" stop-color="#FEECA8"/>
</linearGradient>
<linearGradient id="paint29_linear_19_7483" x1="22.5552" y1="232.494" x2="35.7219" y2="232.494" gradientUnits="userSpaceOnUse">
<stop stop-color="#25054D"/>
<stop offset="1" stop-color="#45108A"/>
</linearGradient>
<linearGradient id="paint30_linear_19_7483" x1="57.193" y1="151.549" x2="42.5697" y2="216.744" gradientUnits="userSpaceOnUse">
<stop offset="0.0353535" stop-color="#FFA98C"/>
<stop offset="0.3169" stop-color="#FFB892"/>
<stop offset="0.8601" stop-color="#FEE1A3"/>
<stop offset="1" stop-color="#FEECA8"/>
</linearGradient>
<radialGradient id="paint31_radial_19_7483" cx="0" cy="0" r="1" gradientUnits="userSpaceOnUse" gradientTransform="translate(44.4241 213.17) scale(35.8823 35.8823)">
<stop offset="0.0959596" stop-color="#FFE4A7"/>
<stop offset="0.4205" stop-color="#F4BE4C"/>
<stop offset="0.6717" stop-color="#ECA30A"/>
<stop offset="1"/>
</radialGradient>
<radialGradient id="paint32_radial_19_7483" cx="0" cy="0" r="1" gradientUnits="userSpaceOnUse" gradientTransform="translate(44.9719 229.626) scale(17.4586 17.4586)">
<stop stop-color="white"/>
<stop offset="1"/>
</radialGradient>
<linearGradient id="paint33_linear_19_7483" x1="39.8332" y1="232.128" x2="-0.344802" y2="251.218" gradientUnits="userSpaceOnUse">
<stop stop-color="#1BB0D4"/>
<stop offset="0.0544733" stop-color="#189DBD"/>
<stop offset="0.1831" stop-color="#12738B"/>
<stop offset="0.3149" stop-color="#0C5060"/>
<stop offset="0.4475" stop-color="#0D5060"/>
<stop offset="0.5813" stop-color="#093541"/>
<stop offset="0.7168" stop-color="#051E24"/>
<stop offset="0.8549" stop-color="#141414"/>
<stop offset="1" stop-color="#141414"/>
</linearGradient>
<linearGradient id="paint34_linear_19_7483" x1="138.543" y1="262.937" x2="166.152" y2="324.89" gradientUnits="userSpaceOnUse">
<stop stop-color="#25054D"/>
<stop offset="1" stop-color="#45108A"/>
</linearGradient>
<radialGradient id="paint35_radial_19_7483" cx="0" cy="0" r="1" gradientUnits="userSpaceOnUse" gradientTransform="translate(66.222 241.459) scale(47.6785 47.6786)">
<stop stop-color="#FDD65B"/>
<stop offset="0.2056" stop-color="#B19540"/>
<stop offset="0.4744" stop-color="#52461E"/>
<stop offset="0.6629" stop-color="#171308"/>
<stop offset="0.7525"/>
</radialGradient>
<radialGradient id="paint36_radial_19_7483" cx="0" cy="0" r="1" gradientUnits="userSpaceOnUse" gradientTransform="translate(113.083 228.766) scale(38.398 38.398)">
<stop offset="0.0959596" stop-color="#45108A"/>
<stop offset="0.6717" stop-color="#25054D"/>
<stop offset="1"/>
</radialGradient>
<linearGradient id="paint37_linear_19_7483" x1="95.87" y1="194.174" x2="123.479" y2="256.127" gradientUnits="userSpaceOnUse">
<stop stop-color="#25054D"/>
<stop offset="1" stop-color="#45108A"/>
</linearGradient>
<radialGradient id="paint38_radial_19_7483" cx="0" cy="0" r="1" gradientUnits="userSpaceOnUse" gradientTransform="translate(70.411 160.003) scale(38.6597 38.6597)">
<stop offset="0.0959596" stop-color="#45108A"/>
<stop offset="0.6717" stop-color="#25054D"/>
<stop offset="1"/>
</radialGradient>
<radialGradient id="paint39_radial_19_7483" cx="0" cy="0" r="1" gradientUnits="userSpaceOnUse" gradientTransform="translate(47.4719 207.084) scale(45.8576 45.8576)">
<stop stop-color="#FDD65B"/>
<stop offset="0.2056" stop-color="#B19540"/>
<stop offset="0.4744" stop-color="#52461E"/>
<stop offset="0.6629" stop-color="#171308"/>
<stop offset="0.7525"/>
</radialGradient>
<linearGradient id="paint40_linear_19_7483" x1="181.215" y1="287.959" x2="208.825" y2="349.912" gradientUnits="userSpaceOnUse">
<stop stop-color="#25054D"/>
<stop offset="1" stop-color="#45108A"/>
</linearGradient>
<radialGradient id="paint41_radial_19_7483" cx="0" cy="0" r="1" gradientUnits="userSpaceOnUse" gradientTransform="translate(155.756 253.788) scale(38.6598 38.6598)">
<stop offset="0.0959596" stop-color="#45108A"/>
<stop offset="0.6717" stop-color="#25054D"/>
<stop offset="1"/>
</radialGradient>
<linearGradient id="paint42_linear_19_7483" x1="138.543" y1="219.196" x2="166.152" y2="281.15" gradientUnits="userSpaceOnUse">
<stop stop-color="#25054D"/>
<stop offset="1" stop-color="#45108A"/>
</linearGradient>
<radialGradient id="paint43_radial_19_7483" cx="0" cy="0" r="1" gradientUnits="userSpaceOnUse" gradientTransform="translate(113.084 185.025) scale(38.6598 38.6598)">
<stop offset="0.0959596" stop-color="#45108A"/>
<stop offset="0.6717" stop-color="#25054D"/>
<stop offset="1"/>
</radialGradient>
<linearGradient id="paint44_linear_19_7483" x1="176.52" y1="249.182" x2="184.537" y2="267.172" gradientUnits="userSpaceOnUse">
<stop stop-color="#25054D"/>
<stop offset="1" stop-color="#45108A"/>
</linearGradient>
<linearGradient id="paint45_linear_19_7483" x1="176.369" y1="217.342" x2="183.754" y2="233.914" gradientUnits="userSpaceOnUse">
<stop stop-color="#25054D"/>
<stop offset="1" stop-color="#45108A"/>
</linearGradient>
<radialGradient id="paint46_radial_19_7483" cx="0" cy="0" r="1" gradientUnits="userSpaceOnUse" gradientTransform="translate(155.756 210.047) scale(38.217 38.217)">
<stop offset="0.0959596" stop-color="#45108A"/>
<stop offset="0.6717" stop-color="#25054D"/>
<stop offset="1"/>
</radialGradient>
<radialGradient id="paint47_radial_19_7483" cx="0" cy="0" r="1" gradientUnits="userSpaceOnUse" gradientTransform="translate(196.222 215.709) scale(38.6686 38.6686)">
<stop stop-color="#FDD65B"/>
<stop offset="0.2056" stop-color="#B19540"/>
<stop offset="0.4744" stop-color="#52461E"/>
<stop offset="0.6629" stop-color="#171308"/>
<stop offset="0.7525"/>
</radialGradient>
<linearGradient id="paint48_linear_19_7483" x1="181.215" y1="244.218" x2="208.825" y2="306.171" gradientUnits="userSpaceOnUse">
<stop stop-color="#25054D"/>
<stop offset="1" stop-color="#45108A"/>
</linearGradient>
<linearGradient id="paint49_linear_19_7483" x1="268.694" y1="193.398" x2="296.304" y2="255.352" gradientUnits="userSpaceOnUse">
<stop stop-color="#25054D"/>
<stop offset="1" stop-color="#45108A"/>
</linearGradient>
<radialGradient id="paint50_radial_19_7483" cx="0" cy="0" r="1" gradientUnits="userSpaceOnUse" gradientTransform="translate(243.235 159.227) scale(38.6598 38.6598)">
<stop offset="0.0959596" stop-color="#45108A"/>
<stop offset="0.6717" stop-color="#25054D"/>
<stop offset="1"/>
</radialGradient>
<linearGradient id="paint51_linear_19_7483" x1="255.923" y1="224.108" x2="178.049" y2="181.705" gradientUnits="userSpaceOnUse">
<stop stop-color="#972A74"/>
<stop offset="0.0412825" stop-color="#8A266A"/>
<stop offset="0.1941" stop-color="#601B4A"/>
<stop offset="0.35" stop-color="#3D112F"/>
<stop offset="0.5074" stop-color="#220A1B"/>
<stop offset="0.6667" stop-color="#0F040C"/>
<stop offset="0.8293" stop-color="#040103"/>
<stop offset="1"/>
</linearGradient>
<linearGradient id="paint52_linear_19_7483" x1="257.926" y1="245.772" x2="265.944" y2="263.762" gradientUnits="userSpaceOnUse">
<stop offset="0.0353535" stop-color="#FFA98C"/>
<stop offset="0.3169" stop-color="#FFB892"/>
<stop offset="0.8601" stop-color="#FEE1A3"/>
<stop offset="1" stop-color="#FEECA8"/>
</linearGradient>
<linearGradient id="paint53_linear_19_7483" x1="178.201" y1="192.693" x2="255.236" y2="286.508" gradientUnits="userSpaceOnUse">
<stop offset="0.0353535" stop-color="#FFA98C"/>
<stop offset="0.3169" stop-color="#FFB892"/>
<stop offset="0.8601" stop-color="#FEE1A3"/>
<stop offset="1" stop-color="#FEECA8"/>
</linearGradient>
<linearGradient id="paint54_linear_19_7483" x1="255.982" y1="142.905" x2="231.982" y2="249.905" gradientUnits="userSpaceOnUse">
<stop offset="0.0353535" stop-color="#FFA98C"/>
<stop offset="0.3169" stop-color="#FFB892"/>
<stop offset="0.8601" stop-color="#FEE1A3"/>
<stop offset="1" stop-color="#FEECA8"/>
</linearGradient>
<radialGradient id="paint55_radial_19_7483" cx="0" cy="0" r="1" gradientUnits="userSpaceOnUse" gradientTransform="translate(237.162 237.637) scale(27.8147 27.8147)">
<stop offset="0.0959596" stop-color="#FFE4A7"/>
<stop offset="0.4205" stop-color="#F4BE4C"/>
<stop offset="0.6717" stop-color="#ECA30A"/>
<stop offset="1"/>
</radialGradient>
<linearGradient id="paint56_linear_19_7483" x1="257.926" y1="235.439" x2="265.944" y2="253.429" gradientUnits="userSpaceOnUse">
<stop offset="0.0353535" stop-color="#FFA98C"/>
<stop offset="0.3169" stop-color="#FFB892"/>
<stop offset="0.8601" stop-color="#FEE1A3"/>
<stop offset="1" stop-color="#FEECA8"/>
</linearGradient>
<linearGradient id="paint57_linear_19_7483" x1="178.201" y1="182.359" x2="255.236" y2="276.174" gradientUnits="userSpaceOnUse">
<stop offset="0.0353535" stop-color="#FFA98C"/>
<stop offset="0.3169" stop-color="#FFB892"/>
<stop offset="0.8601" stop-color="#FEE1A3"/>
<stop offset="1" stop-color="#FEECA8"/>
</linearGradient>
<linearGradient id="paint58_linear_19_7483" x1="255.982" y1="132.572" x2="231.982" y2="239.572" gradientUnits="userSpaceOnUse">
<stop offset="0.0353535" stop-color="#FFA98C"/>
<stop offset="0.3169" stop-color="#FFB892"/>
<stop offset="0.8601" stop-color="#FEE1A3"/>
<stop offset="1" stop-color="#FEECA8"/>
</linearGradient>
<radialGradient id="paint59_radial_19_7483" cx="0" cy="0" r="1" gradientUnits="userSpaceOnUse" gradientTransform="translate(237.162 227.304) scale(27.8147 27.8147)">
<stop offset="0.0959596" stop-color="#FFE4A7"/>
<stop offset="0.4205" stop-color="#F4BE4C"/>
<stop offset="0.6717" stop-color="#ECA30A"/>
<stop offset="1"/>
</radialGradient>
<linearGradient id="paint60_linear_19_7483" x1="257.926" y1="225.105" x2="265.944" y2="243.096" gradientUnits="userSpaceOnUse">
<stop offset="0.0353535" stop-color="#FFA98C"/>
<stop offset="0.3169" stop-color="#FFB892"/>
<stop offset="0.8601" stop-color="#FEE1A3"/>
<stop offset="1" stop-color="#FEECA8"/>
</linearGradient>
<linearGradient id="paint61_linear_19_7483" x1="178.201" y1="172.026" x2="255.236" y2="265.841" gradientUnits="userSpaceOnUse">
<stop offset="0.0353535" stop-color="#FFA98C"/>
<stop offset="0.3169" stop-color="#FFB892"/>
<stop offset="0.8601" stop-color="#FEE1A3"/>
<stop offset="1" stop-color="#FEECA8"/>
</linearGradient>
<linearGradient id="paint62_linear_19_7483" x1="255.982" y1="122.239" x2="231.982" y2="229.238" gradientUnits="userSpaceOnUse">
<stop offset="0.0353535" stop-color="#FFA98C"/>
<stop offset="0.3169" stop-color="#FFB892"/>
<stop offset="0.8601" stop-color="#FEE1A3"/>
<stop offset="1" stop-color="#FEECA8"/>
</linearGradient>
<radialGradient id="paint63_radial_19_7483" cx="0" cy="0" r="1" gradientUnits="userSpaceOnUse" gradientTransform="translate(237.162 216.97) scale(27.8147 27.8147)">
<stop offset="0.0959596" stop-color="#FFE4A7"/>
<stop offset="0.4205" stop-color="#F4BE4C"/>
<stop offset="0.6717" stop-color="#ECA30A"/>
<stop offset="1"/>
</radialGradient>
<linearGradient id="paint64_linear_19_7483" x1="257.926" y1="214.772" x2="265.944" y2="232.762" gradientUnits="userSpaceOnUse">
<stop offset="0.0353535" stop-color="#FFA98C"/>
<stop offset="0.3169" stop-color="#FFB892"/>
<stop offset="0.8601" stop-color="#FEE1A3"/>
<stop offset="1" stop-color="#FEECA8"/>
</linearGradient>
<linearGradient id="paint65_linear_19_7483" x1="178.201" y1="161.693" x2="255.236" y2="255.508" gradientUnits="userSpaceOnUse">
<stop offset="0.0353535" stop-color="#FFA98C"/>
<stop offset="0.3169" stop-color="#FFB892"/>
<stop offset="0.8601" stop-color="#FEE1A3"/>
<stop offset="1" stop-color="#FEECA8"/>
</linearGradient>
<linearGradient id="paint66_linear_19_7483" x1="261.845" y1="85.7659" x2="237.845" y2="192.766" gradientUnits="userSpaceOnUse">
<stop offset="0.0353535" stop-color="#FFA98C"/>
<stop offset="0.3169" stop-color="#FFB892"/>
<stop offset="0.8601" stop-color="#FEE1A3"/>
<stop offset="1" stop-color="#FEECA8"/>
</linearGradient>
<linearGradient id="paint67_linear_19_7483" x1="230.574" y1="186.541" x2="252.907" y2="217.958" gradientUnits="userSpaceOnUse">
<stop stop-color="#25054D"/>
<stop offset="1" stop-color="#45108A"/>
</linearGradient>
<radialGradient id="paint68_radial_19_7483" cx="0" cy="0" r="1" gradientUnits="userSpaceOnUse" gradientTransform="translate(237.162 206.637) scale(27.8147 27.8147)">
<stop offset="0.0959596" stop-color="#FFE4A7"/>
<stop offset="0.4205" stop-color="#F4BE4C"/>
<stop offset="0.6717" stop-color="#ECA30A"/>
<stop offset="1"/>
</radialGradient>
<radialGradient id="paint69_radial_19_7483" cx="0" cy="0" r="1" gradientUnits="userSpaceOnUse" gradientTransform="translate(241.889 207.418) scale(20.8029 20.8029)">
<stop stop-color="white"/>
<stop offset="1"/>
</radialGradient>
<linearGradient id="paint70_linear_19_7483" x1="226.022" y1="124.636" x2="253.631" y2="186.589" gradientUnits="userSpaceOnUse">
<stop stop-color="#25054D"/>
<stop offset="1" stop-color="#45108A"/>
</linearGradient>
<radialGradient id="paint71_radial_19_7483" cx="0" cy="0" r="1" gradientUnits="userSpaceOnUse" gradientTransform="translate(200.563 90.4649) scale(38.6597 38.6597)">
<stop offset="0.0959596" stop-color="#45108A"/>
<stop offset="0.6717" stop-color="#25054D"/>
<stop offset="1"/>
</radialGradient>
<radialGradient id="paint72_radial_19_7483" cx="0" cy="0" r="1" gradientUnits="userSpaceOnUse" gradientTransform="translate(209.028 138.428) scale(7.06061 7.0606)">
<stop offset="0.1515" stop-color="#5213A6"/>
<stop offset="0.2544" stop-color="#45108A"/>
<stop offset="0.7959" stop-color="#25054D"/>
<stop offset="0.9694" stop-color="#2D085C"/>
</radialGradient>
<radialGradient id="paint73_radial_19_7483" cx="0" cy="0" r="1" gradientUnits="userSpaceOnUse" gradientTransform="translate(209.028 105.928) scale(7.06061 7.0606)">
<stop offset="0.1515" stop-color="#5213A6"/>
<stop offset="0.2544" stop-color="#45108A"/>
<stop offset="0.7959" stop-color="#25054D"/>
<stop offset="0.9694" stop-color="#2D085C"/>
</radialGradient>
<radialGradient id="paint74_radial_19_7483" cx="0" cy="0" r="1" gradientUnits="userSpaceOnUse" gradientTransform="translate(241.278 125.428) scale(7.06061 7.0606)">
<stop offset="0.1515" stop-color="#5213A6"/>
<stop offset="0.2544" stop-color="#45108A"/>
<stop offset="0.7959" stop-color="#25054D"/>
<stop offset="0.9694" stop-color="#2D085C"/>
</radialGradient>
<radialGradient id="paint75_radial_19_7483" cx="0" cy="0" r="1" gradientUnits="userSpaceOnUse" gradientTransform="translate(232.028 140.178) scale(7.06061 7.0606)">
<stop offset="0.1515" stop-color="#5213A6"/>
<stop offset="0.2544" stop-color="#45108A"/>
<stop offset="0.7959" stop-color="#25054D"/>
<stop offset="0.9694" stop-color="#2D085C"/>
</radialGradient>
<radialGradient id="paint76_radial_19_7483" cx="0" cy="0" r="1" gradientUnits="userSpaceOnUse" gradientTransform="translate(274.028 105.928) scale(7.06061 7.0606)">
<stop offset="0.1515" stop-color="#5213A6"/>
<stop offset="0.2544" stop-color="#45108A"/>
<stop offset="0.7959" stop-color="#25054D"/>
<stop offset="0.9694" stop-color="#2D085C"/>
</radialGradient>
<radialGradient id="paint77_radial_19_7483" cx="0" cy="0" r="1" gradientUnits="userSpaceOnUse" gradientTransform="translate(274.028 137.928) scale(7.06061 7.0606)">
<stop offset="0.1515" stop-color="#5213A6"/>
<stop offset="0.2544" stop-color="#45108A"/>
<stop offset="0.7959" stop-color="#25054D"/>
<stop offset="0.9694" stop-color="#2D085C"/>
</radialGradient>
<radialGradient id="paint78_radial_19_7483" cx="0" cy="0" r="1" gradientUnits="userSpaceOnUse" gradientTransform="translate(241.278 157.678) scale(7.06061 7.0606)">
<stop offset="0.1515" stop-color="#5213A6"/>
<stop offset="0.2544" stop-color="#45108A"/>
<stop offset="0.7959" stop-color="#25054D"/>
<stop offset="0.9694" stop-color="#2D085C"/>
</radialGradient>
<radialGradient id="paint79_radial_19_7483" cx="0" cy="0" r="1" gradientUnits="userSpaceOnUse" gradientTransform="translate(241.278 86.4277) scale(7.06061 7.0606)">
<stop offset="0.1515" stop-color="#5213A6"/>
<stop offset="0.2544" stop-color="#45108A"/>
<stop offset="0.7959" stop-color="#25054D"/>
<stop offset="0.9694" stop-color="#2D085C"/>
</radialGradient>
<radialGradient id="paint80_radial_19_7483" cx="0" cy="0" r="1" gradientUnits="userSpaceOnUse" gradientTransform="translate(249.028 105.678) scale(7.06061 7.0606)">
<stop offset="0.1515" stop-color="#5213A6"/>
<stop offset="0.2544" stop-color="#45108A"/>
<stop offset="0.7959" stop-color="#25054D"/>
<stop offset="0.9694" stop-color="#2D085C"/>
</radialGradient>
<radialGradient id="paint81_radial_19_7483" cx="0" cy="0" r="1" gradientUnits="userSpaceOnUse" gradientTransform="translate(260.028 117.178) scale(7.06061 7.0606)">
<stop offset="0.1515" stop-color="#5213A6"/>
<stop offset="0.2544" stop-color="#45108A"/>
<stop offset="0.7959" stop-color="#25054D"/>
<stop offset="0.9694" stop-color="#2D085C"/>
</radialGradient>
<radialGradient id="paint82_radial_19_7483" cx="0" cy="0" r="1" gradientUnits="userSpaceOnUse" gradientTransform="translate(253.903 135.928) scale(7.06061 7.0606)">
<stop offset="0.1515" stop-color="#5213A6"/>
<stop offset="0.2544" stop-color="#45108A"/>
<stop offset="0.7959" stop-color="#25054D"/>
<stop offset="0.9694" stop-color="#2D085C"/>
</radialGradient>
<radialGradient id="paint83_radial_19_7483" cx="0" cy="0" r="1" gradientUnits="userSpaceOnUse" gradientTransform="translate(225.028 121.428) scale(7.06061 7.0606)">
<stop offset="0.1515" stop-color="#5213A6"/>
<stop offset="0.2544" stop-color="#45108A"/>
<stop offset="0.7959" stop-color="#25054D"/>
<stop offset="0.9694" stop-color="#2D085C"/>
</radialGradient>
<radialGradient id="paint84_radial_19_7483" cx="0" cy="0" r="1" gradientUnits="userSpaceOnUse" gradientTransform="translate(231.528 104.178) scale(7.06061 7.0606)">
<stop offset="0.1515" stop-color="#5213A6"/>
<stop offset="0.2544" stop-color="#45108A"/>
<stop offset="0.7959" stop-color="#25054D"/>
<stop offset="0.9694" stop-color="#2D085C"/>
</radialGradient>
<linearGradient id="paint85_linear_19_7483" x1="139.609" y1="125.024" x2="167.219" y2="186.977" gradientUnits="userSpaceOnUse">
<stop stop-color="#25054D"/>
<stop offset="1" stop-color="#45108A"/>
</linearGradient>
<radialGradient id="paint86_radial_19_7483" cx="0" cy="0" r="1" gradientUnits="userSpaceOnUse" gradientTransform="translate(114.15 90.8525) scale(38.6597 38.6597)">
<stop offset="0.0959596" stop-color="#45108A"/>
<stop offset="0.6717" stop-color="#25054D"/>
<stop offset="1"/>
</radialGradient>
<linearGradient id="paint87_linear_19_7483" x1="181.215" y1="150.045" x2="208.825" y2="211.999" gradientUnits="userSpaceOnUse">
<stop stop-color="#25054D"/>
<stop offset="1" stop-color="#45108A"/>
</linearGradient>
<radialGradient id="paint88_radial_19_7483" cx="0" cy="0" r="1" gradientUnits="userSpaceOnUse" gradientTransform="translate(155.756 115.874) scale(38.6598 38.6598)">
<stop offset="0.0959596" stop-color="#45108A"/>
<stop offset="0.6717" stop-color="#25054D"/>
<stop offset="1"/>
</radialGradient>
<linearGradient id="paint89_linear_19_7483" x1="224.955" y1="175.067" x2="252.565" y2="237.02" gradientUnits="userSpaceOnUse">
<stop stop-color="#25054D"/>
<stop offset="1" stop-color="#45108A"/>
</linearGradient>
<radialGradient id="paint90_radial_19_7483" cx="0" cy="0" r="1" gradientUnits="userSpaceOnUse" gradientTransform="translate(199.496 140.896) scale(41.4896 41.4896)">
<stop offset="0.0959596" stop-color="#45108A"/>
<stop offset="0.6717" stop-color="#25054D"/>
<stop offset="1"/>
</radialGradient>
<radialGradient id="paint91_radial_19_7483" cx="0" cy="0" r="1" gradientUnits="userSpaceOnUse" gradientTransform="translate(209.472 207.709) scale(92.5971 92.5972)">
<stop stop-color="#FDD65B"/>
<stop offset="0.2056" stop-color="#B19540"/>
<stop offset="0.4744" stop-color="#52461E"/>
<stop offset="0.6629" stop-color="#171308"/>
<stop offset="0.7525"/>
</radialGradient>
<radialGradient id="paint92_radial_19_7483" cx="0" cy="0" r="1" gradientUnits="userSpaceOnUse" gradientTransform="translate(196.139 190.876) scale(63.7376 63.7376)">
<stop stop-color="#43E8E1"/>
<stop offset="0.1619" stop-color="#33B1AB"/>
<stop offset="0.4524" stop-color="#185250"/>
<stop offset="0.6557" stop-color="#071716"/>
<stop offset="0.7525"/>
</radialGradient>
<linearGradient id="paint93_linear_19_7483" x1="95.87" y1="150.433" x2="123.479" y2="212.386" gradientUnits="userSpaceOnUse">
<stop stop-color="#25054D"/>
<stop offset="1" stop-color="#45108A"/>
</linearGradient>
<radialGradient id="paint94_radial_19_7483" cx="0" cy="0" r="1" gradientUnits="userSpaceOnUse" gradientTransform="translate(70.411 116.262) scale(38.6597 38.6597)">
<stop offset="0.0959596" stop-color="#45108A"/>
<stop offset="0.6717" stop-color="#25054D"/>
<stop offset="1"/>
</radialGradient>
<linearGradient id="paint95_linear_19_7483" x1="138.543" y1="175.455" x2="166.152" y2="237.408" gradientUnits="userSpaceOnUse">
<stop stop-color="#25054D"/>
<stop offset="1" stop-color="#45108A"/>
</linearGradient>
<linearGradient id="paint96_linear_19_7483" x1="125.276" y1="172.508" x2="212.898" y2="146.271" gradientUnits="userSpaceOnUse">
<stop stop-color="#25054D"/>
<stop offset="1" stop-color="#45108A"/>
</linearGradient>
<linearGradient id="paint97_linear_19_7483" x1="115.415" y1="170.513" x2="148.457" y2="170.513" gradientUnits="userSpaceOnUse">
<stop stop-color="#25054D"/>
<stop offset="1" stop-color="#45108A"/>
</linearGradient>
<linearGradient id="paint98_linear_19_7483" x1="37.8482" y1="183.137" x2="153.153" y2="157.289" gradientUnits="userSpaceOnUse">
<stop stop-color="#25054D"/>
<stop offset="1" stop-color="#45108A"/>
</linearGradient>
<linearGradient id="paint99_linear_19_7483" x1="77.6623" y1="170.493" x2="110.83" y2="170.493" gradientUnits="userSpaceOnUse">
<stop stop-color="#25054D"/>
<stop offset="1" stop-color="#45108A"/>
</linearGradient>
<linearGradient id="paint100_linear_19_7483" x1="152.313" y1="75.4743" x2="110.087" y2="155.948" gradientUnits="userSpaceOnUse">
<stop stop-color="#25054D"/>
<stop offset="1" stop-color="#45108A"/>
</linearGradient>
<linearGradient id="paint101_linear_19_7483" x1="106.889" y1="165.215" x2="182.503" y2="142.573" gradientUnits="userSpaceOnUse">
<stop offset="0.030303" stop-color="#7C1DC9"/>
<stop offset="0.2138" stop-color="#6E41D2"/>
<stop offset="0.6184" stop-color="#4C9BE8"/>
<stop offset="1" stop-color="#2AF6FF"/>
</linearGradient>
<linearGradient id="paint102_linear_19_7483" x1="46.937" y1="169.001" x2="146.385" y2="146.708" gradientUnits="userSpaceOnUse">
<stop offset="0.0353535" stop-color="#138BBD"/>
<stop offset="0.2257" stop-color="#169AC7"/>
<stop offset="0.5946" stop-color="#1FC3DF"/>
<stop offset="1" stop-color="#2AF6FF"/>
</linearGradient>
<linearGradient id="paint103_linear_19_7483" x1="125.276" y1="152.758" x2="212.898" y2="126.521" gradientUnits="userSpaceOnUse">
<stop stop-color="#25054D"/>
<stop offset="1" stop-color="#45108A"/>
</linearGradient>
<linearGradient id="paint104_linear_19_7483" x1="37.8482" y1="163.387" x2="153.153" y2="137.539" gradientUnits="userSpaceOnUse">
<stop stop-color="#25054D"/>
<stop offset="1" stop-color="#45108A"/>
</linearGradient>
<linearGradient id="paint105_linear_19_7483" x1="77.6623" y1="150.743" x2="110.83" y2="150.743" gradientUnits="userSpaceOnUse">
<stop stop-color="#25054D"/>
<stop offset="1" stop-color="#45108A"/>
</linearGradient>
<radialGradient id="paint106_radial_19_7483" cx="0" cy="0" r="1" gradientUnits="userSpaceOnUse" gradientTransform="translate(113.06 141.361) scale(38.596 38.596)">
<stop offset="0.0959596" stop-color="#45108A"/>
<stop offset="0.6717" stop-color="#25054D"/>
<stop offset="1"/>
</radialGradient>
<linearGradient id="paint107_linear_19_7483" x1="113.049" y1="110.127" x2="113.049" y2="142.489" gradientUnits="userSpaceOnUse">
<stop offset="0.030303" stop-color="#7C1DC9"/>
<stop offset="0.2138" stop-color="#6E41D2"/>
<stop offset="0.6184" stop-color="#4C9BE8"/>
<stop offset="1" stop-color="#2AF6FF"/>
</linearGradient>
<radialGradient id="paint108_radial_19_7483" cx="0" cy="0" r="1" gradientUnits="userSpaceOnUse" gradientTransform="translate(112.875 146.594) scale(15.8953 15.8953)">
<stop stop-color="white"/>
<stop offset="1"/>
</radialGradient>
<linearGradient id="paint109_linear_19_7483" x1="113.049" y1="146.954" x2="113.049" y2="58.0248" gradientUnits="userSpaceOnUse">
<stop stop-color="#1BB0D4"/>
<stop offset="0.0544733" stop-color="#189DBD"/>
<stop offset="0.1831" stop-color="#12738B"/>
<stop offset="0.3149" stop-color="#0C5060"/>
<stop offset="0.4475" stop-color="#08333E"/>
<stop offset="0.5813" stop-color="#083743" stop-opacity="0.83"/>
<stop offset="0.7168" stop-color="#0A3B44" stop-opacity="0.22"/>
<stop offset="0.8549" stop-color="#000304" stop-opacity="0"/>
<stop offset="1" stop-opacity="0"/>
</linearGradient>
<linearGradient id="paint110_linear_19_7483" x1="181.215" y1="200.477" x2="208.825" y2="262.43" gradientUnits="userSpaceOnUse">
<stop stop-color="#25054D"/>
<stop offset="1" stop-color="#45108A"/>
</linearGradient>
<radialGradient id="paint111_radial_19_7483" cx="0" cy="0" r="1" gradientUnits="userSpaceOnUse" gradientTransform="translate(155.756 166.306) scale(38.6598 38.6598)">
<stop offset="0.0959596" stop-color="#45108A"/>
<stop offset="0.6717" stop-color="#25054D"/>
<stop offset="1"/>
</radialGradient>
<linearGradient id="paint112_linear_19_7483" x1="64.6309" y1="209.445" x2="40.9642" y2="218.445" gradientUnits="userSpaceOnUse">
<stop stop-color="white"/>
<stop offset="1" stop-color="#A3653D"/>
</linearGradient>
<linearGradient id="paint113_linear_19_7483" x1="45.2142" y1="198.029" x2="21.5477" y2="207.029" gradientUnits="userSpaceOnUse">
<stop stop-color="white"/>
<stop offset="1" stop-color="#A3653D"/>
</linearGradient>
<linearGradient id="paint114_linear_19_7483" x1="68.1075" y1="236.75" x2="71.4408" y2="242.083" gradientUnits="userSpaceOnUse">
<stop offset="0.0353535" stop-color="#FFA98C"/>
<stop offset="0.3169" stop-color="#FFB892"/>
<stop offset="0.8601" stop-color="#FEE1A3"/>
<stop offset="1" stop-color="#FEECA8"/>
</linearGradient>
<radialGradient id="paint115_radial_19_7483" cx="0" cy="0" r="1" gradientUnits="userSpaceOnUse" gradientTransform="translate(49.8605 197.1) scale(29.0284 29.0284)">
<stop offset="0.0959596" stop-color="#FFE4A7"/>
<stop offset="0.4205" stop-color="#F4BE4C"/>
<stop offset="0.6717" stop-color="#ECA30A"/>
<stop offset="1"/>
</radialGradient>
<linearGradient id="paint116_linear_19_7483" x1="24.039" y1="238.394" x2="54.5388" y2="184.228" gradientUnits="userSpaceOnUse">
<stop offset="0.0353535" stop-color="#FFA98C"/>
<stop offset="0.313" stop-color="#FFB893"/>
<stop offset="0.3225" stop-color="#FFB993"/>
<stop offset="0.8165" stop-color="#FEDDA2"/>
<stop offset="1" stop-color="#FEECA8"/>
</linearGradient>
<linearGradient id="paint117_linear_19_7483" x1="236.914" y1="202.302" x2="236.914" y2="143.03" gradientUnits="userSpaceOnUse">
<stop stop-color="#1BB0D4"/>
<stop offset="0.0544733" stop-color="#189DBD"/>
<stop offset="0.1831" stop-color="#12738B"/>
<stop offset="0.3149" stop-color="#0C5060"/>
<stop offset="0.4475" stop-color="#093E4B"/>
<stop offset="0.5813" stop-color="#07343F" stop-opacity="0.59"/>
<stop offset="0.7168" stop-color="#06282F" stop-opacity="0.7"/>
<stop offset="0.8549" stop-color="#01222D" stop-opacity="0.22"/>
<stop offset="1" stop-opacity="0"/>
</linearGradient>
</defs>
</svg>
